<?xml version="1.0" standalone="no"?>
<!DOCTYPE svg PUBLIC "-//W3C//DTD SVG 1.1//EN" "http://www.w3.org/Graphics/SVG/1.1/DTD/svg11.dtd" >
<svg xmlns="http://www.w3.org/2000/svg" xmlns:xlink="http://www.w3.org/1999/xlink" version="1.1">
<metadata>
Created by FontForge 20161013 at Fri Oct 21 05:22:10 2011
 By ,,,
Copyright (c) Christian Schwartz, 2007. All rights reserved.
</metadata>
<defs>
<font id="BBVAWebBook-Italic" horiz-adv-x="1229" >
  <font-face 
    font-family="BBVA Web Book"
    font-weight="500"
    font-style="italic"
    font-stretch="normal"
    units-per-em="2048"
    panose-1="2 11 5 3 4 0 0 2 0 4"
    ascent="1638"
    descent="-410"
    x-height="1071"
    cap-height="1434"
    bbox="-465 -358 2392 1870"
    underline-thickness="102"
    underline-position="-307"
    slope="-13"
    unicode-range="U+0020-FB02"
  />
<missing-glyph horiz-adv-x="1024" 
 />
    <glyph glyph-name=".notdef" horiz-adv-x="1024" 
 />
    <glyph glyph-name=".null" horiz-adv-x="0" 
 />
    <glyph glyph-name="nonmarkingreturn" horiz-adv-x="614" 
 />
    <glyph glyph-name="space" unicode=" " horiz-adv-x="614" 
 />
    <glyph glyph-name="exclam" unicode="!" horiz-adv-x="516" 
d="M324 1305l30 129h226l-31 -129l-264 -940h-144zM154 -10q-27 0 -49.5 9.5t-38 26t-24.5 39t-9 48.5q0 27 10.5 50.5t28 41t41.5 27.5t51 10q28 0 51 -10t39.5 -27t25.5 -39.5t9 -46.5q0 -29 -11 -52.5t-29.5 -40.5t-43 -26.5t-51.5 -9.5z" />
    <glyph glyph-name="quotedbl" unicode="&#x22;" horiz-adv-x="637" 
d="M252 1313l29 121h198l-26 -121l-105 -291h-129zM553 1313l29 121h200l-28 -121l-105 -291h-127z" />
    <glyph glyph-name="numbersign" unicode="#" 
d="M317 459h-182l39 166h191l63 235h-184l39 166h190l111 408h145l-111 -408h240l111 408h145l-110 -408h188l-41 -166h-193l-63 -235h186l-37 -166h-194l-125 -459h-145l122 459h-239l-125 -459h-145zM750 625l63 235h-240l-63 -235h240z" />
    <glyph glyph-name="dollar" unicode="$" 
d="M403 -2q-109 17 -192.5 59t-140.5 95l34 153h82q45 -57 108 -96.5t146 -54.5l119 512q-68 27 -123.5 58.5t-94.5 73.5t-60 97t-21 127q0 97 35.5 175.5t99 134t153 85t197.5 29.5h9l26 119h140l-31 -131q160 -28 272 -127l-33 -142h-79q-42 47 -89 75t-106 40l-111 -475
q68 -27 127 -58.5t103 -74t69 -98.5t25 -132q0 -111 -37.5 -195.5t-105.5 -141.5t-162.5 -86.5t-208.5 -30.5h-12l-45 -197h-140zM862 422q0 37 -12 65.5t-35 51t-55.5 40.5t-73.5 35l-108 -467h4q60 4 111 22t88.5 52t59 83.5t21.5 117.5zM453 1047q0 -38 11 -66.5
t31.5 -51t50.5 -40t68 -33.5l103 436q-56 -3 -104 -20t-83.5 -47.5t-56 -75t-20.5 -102.5z" />
    <glyph glyph-name="percent" unicode="%" horiz-adv-x="1638" 
d="M449 831q51 -1 92 28.5t69 77t43 105.5t15 115q0 34 -8 63.5t-25.5 52t-44 35.5t-62.5 13q-51 0 -92 -30t-69 -77.5t-43 -106t-15 -114.5q0 -35 8 -64.5t25.5 -51t44 -34t62.5 -12.5zM436 705q-66 0 -120.5 21t-93 59t-60 92t-21.5 120q0 91 30.5 172.5t84.5 143
t127 97.5t158 36q67 0 121.5 -21t93 -59t59.5 -93t21 -122q0 -89 -30.5 -169.5t-84 -142t-127 -98t-158.5 -36.5zM1413 1493h170l-1288 -1563h-168zM1184 113q51 0 92 29.5t69 76.5t43 104.5t15 114.5q0 34 -8 63.5t-24.5 52t-42.5 35.5t-62 13q-52 0 -92.5 -30t-68.5 -77
t-43 -105.5t-15 -115.5q0 -35 8 -64t25 -51t43 -34t61 -12zM1171 -12q-66 0 -120 20.5t-93 58.5t-60 92t-21 120q0 90 30.5 172t84.5 143.5t127 98t157 36.5q67 0 121.5 -21t93 -59.5t59.5 -93.5t21 -123q0 -88 -30.5 -168.5t-84 -141.5t-127 -97.5t-158.5 -36.5z" />
    <glyph glyph-name="ampersand" unicode="&#x26;" horiz-adv-x="1374" 
d="M487 -14q-93 0 -174.5 25t-142 73.5t-95 120.5t-34.5 166q0 88 32.5 161.5t88 132t129 101.5t155.5 70q-20 43 -31.5 88.5t-11.5 101.5q0 87 32.5 163.5t94 133.5t149 90t198.5 33q102 0 174 -23t131 -69l-31 -160h-84q-35 42 -81 64t-116 22q-57 0 -103.5 -18t-79.5 -50
t-51 -77t-18 -99q0 -27 4 -52t13.5 -52t26 -56.5t40.5 -64.5l265 -383q27 42 53 90t48 98.5t39.5 103t29.5 103.5h180v-51q-19 -68 -46 -133.5t-59.5 -127.5t-69.5 -118.5t-77 -105.5l154 -221l4 -66h-213l-97 141q-44 -36 -91 -64.5t-99 -49t-110.5 -31t-125.5 -10.5z
M530 145q96 0 168.5 33t126.5 84l-315 455q-49 -21 -93 -49.5t-77 -68t-52.5 -91t-19.5 -117.5q0 -53 18 -98t52 -78t82.5 -51.5t109.5 -18.5z" />
    <glyph glyph-name="quotesingle" unicode="'" horiz-adv-x="340" 
d="M252 1313l29 121h198l-26 -121l-105 -291h-127z" />
    <glyph glyph-name="parenleft" unicode="(" horiz-adv-x="678" 
d="M422 -100q-59 27 -115.5 75.5t-100 121.5t-70 171t-25.5 226q0 164 44 323.5t129 296.5t210 242.5t286 161.5h66l-35 -144q-117 -51 -210.5 -140.5t-158 -205.5t-99 -253t-34.5 -283q-1 -104 16.5 -180.5t45 -130.5t63 -88.5t70.5 -53.5l-33 -139h-49z" />
    <glyph glyph-name="parenright" unicode=")" horiz-adv-x="678" 
d="M-47 43q117 51 210.5 140.5t158 206t99 253.5t34.5 283q1 103 -16.5 179.5t-45 130.5t-63 88.5t-70.5 53.5l33 140h49q59 -28 115.5 -76.5t100 -121t70 -171t25.5 -225.5q0 -165 -44 -324.5t-129.5 -296.5t-210.5 -242t-287 -161h-64z" />
    <glyph glyph-name="asterisk" unicode="*" horiz-adv-x="776" 
d="M547 850l-47 176l-121 -162l-62 -61l-108 119l63 57l154 104l-166 47l-72 33l78 150l74 -33l141 -111v183l19 82h170l-23 -95l-65 -180l172 70l82 14l18 -162l-82 -14l-176 -2l106 -139l35 -70l-155 -76z" />
    <glyph glyph-name="plus" unicode="+" 
d="M545 623h-363l39 170h363l90 385h182l-90 -385h360l-39 -170h-360l-88 -385h-182z" />
    <glyph glyph-name="comma" unicode="," horiz-adv-x="614" 
d="M31 -96q60 8 97.5 30.5t37.5 51.5q0 18 -9.5 26t-25.5 21q-41 27 -41 82q0 28 10.5 51.5t28 40t41 26t49.5 9.5t49.5 -9t41 -27t28 -44t10.5 -60q0 -70 -25 -123.5t-70 -91t-107.5 -59t-137.5 -27.5z" />
    <glyph glyph-name="hyphen" unicode="-" horiz-adv-x="547" 
d="M100 696h424l-41 -174h-424z" />
    <glyph glyph-name="period" unicode="." horiz-adv-x="614" 
d="M213 -10q-28 0 -50.5 9.5t-38.5 25.5t-25 38t-9 48q0 27 11 51t30 42t43 28t51 10q28 0 50.5 -9.5t38.5 -26t25 -38.5t9 -47q0 -29 -11 -53t-29.5 -41t-43 -27t-51.5 -10z" />
    <glyph glyph-name="slash" unicode="/" horiz-adv-x="694" 
d="M-106 -55l823 1573h162v-45l-824 -1573h-161v45z" />
    <glyph glyph-name="zero" unicode="0" 
d="M547 -12q-114 0 -198.5 37t-140.5 102.5t-84 155.5t-28 196q0 101 17.5 211.5t53.5 218t91 205t129 171.5t168 117.5t209 43.5q110 0 193 -36.5t138.5 -103.5t83.5 -161t27 -209q-1 -98 -17.5 -206.5t-51.5 -214t-88.5 -201t-126.5 -168t-166.5 -115.5t-208.5 -43z
M313 471q0 -71 12.5 -130t40.5 -102.5t73 -67.5t110 -24q74 0 135 39t109.5 103.5t85 147.5t60.5 171t36 174.5t12 157.5q0 72 -11.5 135t-38.5 109.5t-71 73t-108 26.5q-74 0 -135.5 -39.5t-111.5 -105t-87 -150.5t-62 -175.5t-37.5 -179.5t-11.5 -163z" />
    <glyph glyph-name="one" unicode="1" 
d="M717 1190l-332 -172h-66l35 156l494 260h151l-329 -1434h-226z" />
    <glyph glyph-name="two" unicode="2" 
d="M47 180l512 395q68 53 137 111t124 121t89.5 130.5t34.5 141.5q0 100 -62 148.5t-177 48.5q-51 0 -98 -9.5t-89.5 -25.5t-80.5 -37t-70 -43h-78l39 168q81 53 187 85t226 32q90 0 168 -21t136 -65t91 -111.5t33 -161.5q0 -93 -37.5 -174.5t-101.5 -156t-149 -145
t-179 -140.5l-389 -293h682l-41 -178h-948z" />
    <glyph glyph-name="three" unicode="3" 
d="M518 -12q-148 0 -262.5 42.5t-189.5 123.5l34 151h88q25 -37 60.5 -65t77 -47t88.5 -29t96 -10q70 -1 128 17t100 53.5t65.5 87t23.5 118.5q0 50 -14.5 91.5t-47 71t-83.5 46t-123 16.5h-100l37 164h120q67 0 125.5 15t101.5 46.5t68 81t25 117.5q0 55 -19 93.5t-51 62.5
t-73.5 35t-87.5 12q-47 1 -90 -6t-81 -20t-71 -30t-60 -36h-88l35 156q72 44 166 73t217 29q77 0 151 -18t132 -59t93.5 -108.5t35.5 -166.5q0 -74 -23 -134.5t-65.5 -107t-102.5 -77.5t-133 -46v-6q50 -14 91 -41t70.5 -65.5t45.5 -87.5t16 -107q0 -100 -39.5 -180.5
t-110 -137.5t-166.5 -87.5t-210 -30.5z" />
    <glyph glyph-name="four" unicode="4" 
d="M709 334h-648l43 190l863 910h215l-215 -938h168l-37 -162h-168l-78 -334h-221zM745 496l150 649h-8l-604 -643v-6h462z" />
    <glyph glyph-name="five" unicode="5" 
d="M481 -12q-147 0 -250.5 36t-173.5 101l33 149h90q50 -63 124 -92.5t173 -29.5q80 0 150.5 26.5t123 76t83 120t30.5 157.5q0 109 -62.5 167.5t-168.5 58.5q-51 0 -93.5 -11t-78 -28t-63.5 -39t-50 -43h-137l184 797h813l-41 -181h-645l-98 -426h6q20 18 47.5 35t63 30.5
t78 21.5t92.5 8q85 0 155 -26t120.5 -74.5t78 -119t27.5 -159.5q0 -128 -48 -230.5t-131 -174.5t-194 -111t-238 -39z" />
    <glyph glyph-name="six" unicode="6" 
d="M590 -12q-111 0 -200.5 34t-151.5 99t-95.5 159t-33.5 214q0 87 14.5 177t43.5 177t72.5 167t102.5 148q50 64 110.5 116t132.5 89t154.5 57.5t175.5 20.5q107 0 189 -21t145 -69l-35 -154h-86q-38 40 -97 60t-122 20q-68 0 -124.5 -14.5t-105 -40.5t-89 -63.5
t-74.5 -82.5q-60 -69 -99 -156.5t-59 -181.5q78 66 176 107t214 41q84 0 155.5 -24t124.5 -71.5t83 -119t30 -166.5q0 -108 -40.5 -203.5t-113 -166t-174 -111.5t-223.5 -41zM670 737q-47 0 -93 -10.5t-88.5 -27.5t-81.5 -40.5t-71 -48.5q-6 -68 -6 -133q0 -73 13.5 -135
t45 -107t83 -70.5t126.5 -25.5q72 0 132 27t103 75.5t67 116t24 148.5q0 111 -65 171t-189 60z" />
    <glyph glyph-name="seven" unicode="7" 
d="M229 94l836 1153v6h-776l43 181h954l-45 -197l-795 -1237h-217v94z" />
    <glyph glyph-name="eight" unicode="8" 
d="M553 -14q-53 0 -109.5 7.5t-111 25.5t-103.5 47t-86 71t-58.5 99t-21.5 131q0 86 30 154.5t82.5 119.5t123 84.5t152.5 48.5v6q-82 37 -130.5 103.5t-48.5 154.5q0 96 39.5 171.5t107 128t156.5 80.5t189 28q94 0 172.5 -23.5t135.5 -68t88.5 -109.5t31.5 -149
q0 -75 -23 -132.5t-64 -99.5t-96.5 -69t-119.5 -41v-6q106 -41 164.5 -120t58.5 -194q0 -106 -42 -189t-117 -140.5t-177.5 -88t-222.5 -30.5zM559 139q77 0 138.5 21.5t105 61.5t67 96t23.5 124q0 60 -20 106t-56 77.5t-87 48t-112 16.5q-77 0 -139 -24t-105.5 -66
t-67 -98.5t-23.5 -120.5q0 -62 21.5 -107.5t59 -75.5t88 -44.5t107.5 -14.5zM713 838q59 0 108 16t84.5 47t55.5 77.5t20 106.5q0 51 -16 89.5t-45.5 64t-70.5 38.5t-91 13q-58 0 -108 -16.5t-86.5 -49t-57.5 -80t-21 -108.5q0 -53 19 -90.5t51 -61.5t73 -35t85 -11z" />
    <glyph glyph-name="nine" unicode="9" 
d="M395 -14q-114 0 -198.5 22.5t-149.5 69.5l33 151h86q79 -79 235 -79q116 0 209.5 39t159.5 108q72 72 116.5 171t67.5 212q-75 -62 -172.5 -100.5t-218.5 -38.5q-87 0 -160 24t-125 70t-81 113.5t-29 154.5q0 114 42.5 213t117.5 172t177 114.5t220 41.5q110 0 198.5 -34
t151 -97.5t96 -153.5t33.5 -201t-16.5 -216.5t-49.5 -201.5t-82.5 -180t-115.5 -151q-97 -106 -232.5 -164.5t-312.5 -58.5zM639 696q46 0 92 9.5t89.5 26t83 39t71.5 48.5q5 38 6.5 77t1.5 79q0 66 -14.5 124t-46 100.5t-82 67.5t-121.5 25q-74 0 -136 -26.5t-107 -75
t-70 -116.5t-25 -152q0 -113 66.5 -169.5t191.5 -56.5z" />
    <glyph glyph-name="colon" unicode=":" horiz-adv-x="614" 
d="M211 -10q-27 0 -49.5 9.5t-39 25.5t-25.5 38t-9 48q0 27 11 51t30 42t43 28t51 10q28 0 50.5 -9.5t38.5 -26t25 -38.5t9 -47q0 -29 -11 -53t-29.5 -41t-43 -27t-51.5 -10zM352 602q-54 0 -87.5 35t-33.5 88q0 28 11 52t30 41.5t43.5 27.5t51.5 10t49 -9.5t38.5 -26.5
t25.5 -39.5t9 -47.5q0 -28 -11 -52t-30 -41.5t-43.5 -27.5t-52.5 -10z" />
    <glyph glyph-name="semicolon" unicode=";" horiz-adv-x="614" 
d="M29 -96q60 8 97.5 30.5t37.5 51.5q0 18 -9.5 26t-25.5 21q-41 27 -41 82q0 28 11 51.5t29 40t41.5 26t49.5 9.5t49 -9t40.5 -27t27.5 -44t10 -60q0 -70 -25 -123.5t-70 -91t-107.5 -59t-137.5 -27.5zM352 602q-54 0 -87.5 35t-33.5 88q0 28 11 52t30 41.5t43.5 27.5
t51.5 10t49 -9.5t38.5 -26.5t25.5 -39.5t9 -47.5q0 -28 -11 -52t-30 -41.5t-43.5 -27.5t-52.5 -10z" />
    <glyph glyph-name="less" unicode="&#x3c;" 
d="M227 618l33 144l840 383h55l-39 -166l-659 -299v-6l516 -318l-35 -151h-55z" />
    <glyph glyph-name="equal" unicode="=" 
d="M172 535h887l-39 -170h-887zM260 924h889l-39 -170h-887z" />
    <glyph glyph-name="greater" unicode="&#x3e;" 
d="M178 371l658 301v4l-514 317l34 152h56l655 -414l-33 -143l-839 -383h-56z" />
    <glyph glyph-name="question" unicode="?" horiz-adv-x="922" 
d="M238 365q5 75 20 133t43.5 107t73.5 94t110 94q42 30 89.5 61.5t88 70t67 86.5t26.5 113q0 43 -15.5 73t-41.5 48.5t-61.5 26.5t-74.5 8q-91 0 -153.5 -24.5t-110.5 -61.5h-86l37 162q60 40 146 66t202 26q72 0 141 -16.5t122 -53.5t85.5 -96.5t32.5 -146.5
q0 -75 -25.5 -135.5t-68 -111.5t-99 -94t-118.5 -83q-59 -37 -106 -70.5t-81.5 -72t-56 -87.5t-29.5 -116h-157zM270 -10q-27 0 -49.5 9.5t-39 26t-25.5 39t-9 48.5q0 27 11 50.5t29 41t42.5 27.5t51.5 10t50 -10t39.5 -27t26 -39.5t9.5 -46.5q0 -29 -11 -52.5t-30 -40.5
t-43.5 -26.5t-51.5 -9.5z" />
    <glyph glyph-name="at" unicode="@" horiz-adv-x="1796" 
d="M905 -260q-106 0 -208 18t-193.5 57t-168 98.5t-132.5 142.5t-87.5 190t-31.5 241q0 140 37.5 259t102 215.5t151 170t186 123.5t206 75.5t210.5 25.5q159 0 299 -43.5t245 -127.5t165.5 -208t60.5 -285q0 -143 -40.5 -247t-107.5 -171.5t-152 -100t-175 -32.5
q-60 0 -102.5 11.5t-71 32t-43.5 48.5t-21 60q-25 -29 -56 -57t-68 -49.5t-80 -34.5t-93 -13q-55 0 -100.5 17.5t-78.5 52.5t-51 87.5t-18 121.5q0 62 15 125.5t43.5 122.5t70 110t94 89.5t116 60.5t135.5 22q40 0 71 -6t56 -16.5t44.5 -25t36.5 -30.5q22 32 46.5 50
t66.5 18h66l-121 -518q-8 -32 -8.5 -59.5t9 -47t30 -30.5t55.5 -11q54 0 103.5 24t87.5 75t60.5 130.5t22.5 190.5q0 127 -43.5 225.5t-123.5 166t-193 102.5t-252 35q-88 0 -176.5 -20.5t-169.5 -61.5t-150.5 -102t-120.5 -142.5t-80.5 -183.5t-29.5 -224
q0 -167 50.5 -283.5t139 -190t208 -107t257.5 -33.5q155 0 287 37t235 106h58l-31 -139q-99 -63 -237 -100t-312 -37zM793 276q36 0 68.5 11t62.5 30t57.5 43.5t52.5 51.5l84 360q-23 16 -53 25.5t-82 9.5q-66 0 -122 -33t-96.5 -87.5t-63.5 -124.5t-23 -144t32.5 -108
t82.5 -34z" />
    <glyph glyph-name="A" unicode="A" horiz-adv-x="1337" 
d="M-47 66l786 1368h244l180 -1368v-66h-217l-49 410h-543l-225 -410h-176v66zM444 571h435l-76 639h-4z" />
    <glyph glyph-name="B" unicode="B" horiz-adv-x="1247" 
d="M375 1434h399q99 0 179 -21t136 -63t86.5 -104.5t30.5 -145.5q0 -76 -23.5 -135t-66 -102t-101 -71.5t-128.5 -43.5v-7q56 -11 102 -35t79 -60.5t51 -87.5t18 -116q0 -115 -47.5 -198.5t-128 -137.5t-187 -80t-225.5 -26h-504zM561 164q75 0 139.5 16.5t112 52t74 90
t26.5 130.5q0 106 -66.5 162.5t-193.5 56.5h-233l-117 -508h258zM672 827q64 0 121 13.5t100 43.5t68.5 78.5t25.5 118.5q0 93 -59.5 141t-167.5 48h-201l-102 -443h215z" />
    <glyph glyph-name="C" unicode="C" horiz-adv-x="1292" 
d="M707 -12q-132 0 -240.5 35t-186 105.5t-119.5 177t-42 249.5q0 109 24 218t71 208t116.5 184t160.5 147.5t203 98t244 35.5t225 -28t162 -79l-37 -155h-82q-48 46 -113.5 71t-164.5 25q-101 0 -183.5 -31.5t-147 -86t-112 -126.5t-78.5 -153t-46 -165.5t-15 -164.5
q0 -203 97 -302t276 -99q106 0 188.5 30.5t147.5 79.5h92l-39 -168q-71 -48 -169 -77t-232 -29z" />
    <glyph glyph-name="D" unicode="D" horiz-adv-x="1427" 
d="M586 164q102 0 183.5 29.5t145 80.5t109.5 119.5t75.5 146t43.5 160t14 162.5q0 86 -20 160.5t-63.5 129t-113 85.5t-169.5 31h-232l-254 -1104h281zM375 1434h422q139 0 249 -38.5t186.5 -111.5t116.5 -179.5t40 -242.5q0 -109 -23 -215.5t-68.5 -202.5t-113 -177.5
t-156 -140.5t-198 -92.5t-238.5 -33.5h-547z" />
    <glyph glyph-name="E" unicode="E" horiz-adv-x="1167" 
d="M375 1434h876l-39 -168h-651l-104 -453h491l-37 -160h-491l-113 -489h699l-37 -164h-924z" />
    <glyph glyph-name="F" unicode="F" horiz-adv-x="1133" 
d="M375 1434h889l-39 -168h-664l-112 -488h514l-37 -160h-514l-142 -618h-225z" />
    <glyph glyph-name="G" unicode="G" horiz-adv-x="1389" 
d="M715 -12q-125 0 -234 31.5t-189.5 99t-126.5 173t-46 253.5q0 110 23.5 219.5t69.5 209.5t114.5 186.5t159 150t201.5 99.5t243 36q133 0 238 -28.5t184 -88.5l-37 -158h-84q-54 56 -132 82.5t-184 26.5q-98 0 -178.5 -32t-144 -86.5t-110.5 -127.5t-77.5 -155.5
t-45.5 -169.5t-15 -170q0 -195 95.5 -293.5t285.5 -98.5q80 0 135.5 13.5t95.5 32.5l86 380h-245l34 154h467l-147 -643q-32 -18 -76 -35.5t-99 -31t-120.5 -21.5t-140.5 -8z" />
    <glyph glyph-name="H" unicode="H" horiz-adv-x="1434" 
d="M375 1434h225l-141 -617h655l143 617h224l-330 -1434h-223l149 653h-657l-150 -653h-225z" />
    <glyph glyph-name="I" unicode="I" horiz-adv-x="563" 
d="M381 1434h225l-330 -1434h-225z" />
    <glyph glyph-name="J" unicode="J" horiz-adv-x="918" 
d="M266 -14q-58 0 -106.5 7.5t-87.5 20.5t-69 29t-52 33l35 153h77q23 -29 71.5 -53t125.5 -24q106 0 161 51.5t77 148.5l247 1082h228l-258 -1117q-18 -76 -53 -137t-89.5 -104t-130.5 -66.5t-176 -23.5z" />
    <glyph glyph-name="K" unicode="K" horiz-adv-x="1325" 
d="M375 1434h225l-170 -736l774 736h191v-66l-576 -537l334 -765v-66h-209l-295 686l-280 -256l-99 -430h-225z" />
    <glyph glyph-name="L" unicode="L" horiz-adv-x="1122" 
d="M375 1434h225l-293 -1270h649l-38 -164h-873z" />
    <glyph glyph-name="M" unicode="M" horiz-adv-x="1704" 
d="M375 1434h305l123 -1096h4l623 1096h321l-330 -1434h-221l275 1192h-9l-682 -1192h-139l-131 1192h-6l-275 -1192h-188z" />
    <glyph glyph-name="N" unicode="N" horiz-adv-x="1421" 
d="M375 1434h260l389 -1069h6l248 1069h192l-329 -1434h-207l-424 1163h-6l-266 -1163h-193z" />
    <glyph glyph-name="O" unicode="O" horiz-adv-x="1503" 
d="M709 147q87 0 160 31t131 84.5t102.5 124t73.5 150t44 163t15 162.5q0 85 -19 162t-62 135.5t-112 92.5t-168 34q-87 0 -160 -31.5t-131.5 -84.5t-103 -124.5t-74 -150.5t-44.5 -162.5t-15 -161.5q0 -90 20.5 -167.5t65 -134.5t113 -89.5t164.5 -32.5zM700 -12
q-137 0 -244.5 42.5t-182.5 119.5t-114.5 185.5t-39.5 239.5q0 111 24 218.5t69.5 204t112 179t151 142t186 93.5t217.5 34q136 0 244.5 -42.5t183.5 -120t115 -185.5t40 -238q0 -108 -23 -214.5t-68 -203.5t-110 -180t-150 -144t-188 -95.5t-223 -34.5z" />
    <glyph glyph-name="P" unicode="P" horiz-adv-x="1223" 
d="M375 1434h391q229 0 350 -93.5t121 -283.5q0 -131 -44 -225.5t-124.5 -156t-194.5 -91t-253 -29.5h-224l-127 -555h-225zM633 713q88 0 159.5 18.5t122 60t78 108t27.5 163.5q0 106 -66.5 155.5t-203.5 49.5h-189l-129 -555h201z" />
    <glyph glyph-name="Q" unicode="Q" horiz-adv-x="1503" 
d="M610 -39q-244 75 -367.5 224t-123.5 390q0 111 24 218.5t69.5 204t112 179t151 142t186 93.5t217.5 34q136 0 244.5 -42.5t183.5 -120t115 -185.5t40 -238q0 -147 -38.5 -282.5t-112 -245t-179.5 -185t-241 -102.5v-6l452 -86l-38 -172h-101zM711 147q87 0 159.5 31
t130.5 84.5t101.5 124t72.5 150t43.5 163t14.5 162.5q0 85 -19 162t-61.5 135.5t-111 92.5t-167.5 34q-87 0 -160 -31.5t-131.5 -84.5t-103 -124.5t-74 -150.5t-44.5 -162.5t-15 -161.5q0 -90 20 -167.5t64 -134.5t113.5 -89.5t167.5 -32.5z" />
    <glyph glyph-name="R" unicode="R" horiz-adv-x="1282" 
d="M670 602h-260l-140 -602h-225l330 1434h401q229 0 344 -95.5t115 -279.5q0 -86 -25.5 -156t-72 -124t-112 -91.5t-146.5 -58.5l227 -563v-66h-203zM655 758q86 0 153.5 18t114 55.5t71 96.5t24.5 141q0 99 -62 149t-196 50h-199l-117 -510h211z" />
    <glyph glyph-name="S" unicode="S" horiz-adv-x="1096" 
d="M467 -12q-80 0 -149.5 12t-128.5 33.5t-107 50.5t-84 63l35 160h82q57 -71 146.5 -113t213.5 -42q63 0 119 15.5t97.5 48t66 83t24.5 121.5q0 48 -19 81t-53.5 58.5t-84.5 46t-111 43.5q-74 28 -133 60t-100.5 74.5t-63.5 98.5t-22 132q0 100 35.5 180.5t100 136
t155 85.5t200.5 30q131 0 233 -37t181 -106l-35 -150h-80q-60 61 -133.5 95t-177.5 34q-56 0 -106 -14.5t-88 -44t-60.5 -73.5t-22.5 -103q0 -48 17 -81t50 -57.5t82 -45t113 -44.5q72 -27 133.5 -58t106.5 -73.5t70.5 -100t25.5 -136.5q0 -115 -38.5 -201.5t-108 -144.5
t-167 -87.5t-214.5 -29.5z" />
    <glyph glyph-name="T" unicode="T" horiz-adv-x="1176" 
d="M647 1270h-418l39 164h1059l-37 -164h-418l-292 -1270h-226z" />
    <glyph glyph-name="U" unicode="U" horiz-adv-x="1397" 
d="M651 -12q-137 0 -243 36t-171 107.5t-86 177.5t11 246l203 879h225l-209 -904q-20 -87 -13 -156t42 -117t98.5 -73.5t157.5 -25.5q73 0 132.5 16.5t106 54t79.5 98.5t54 150l219 957h193l-223 -971q-27 -115 -74.5 -203.5t-118 -149t-166 -91.5t-217.5 -31z" />
    <glyph glyph-name="V" unicode="V" horiz-adv-x="1294" 
d="M258 1368v66h213l129 -1168h4l649 1168h177v-66l-781 -1368h-227z" />
    <glyph glyph-name="W" unicode="W" horiz-adv-x="1874" 
d="M264 1370v64h211l25 -1143h6l549 1143h192l37 -1143h4l524 1143h189v-64l-653 -1370h-250l-29 1075h-2l-512 -1075h-250z" />
    <glyph glyph-name="X" unicode="X" horiz-adv-x="1309" 
d="M-14 70l571 678l-256 616v70h209l225 -562l453 562h180v-70l-526 -635l274 -659v-70h-209l-245 606l-496 -606h-180v70z" />
    <glyph glyph-name="Y" unicode="Y" horiz-adv-x="1196" 
d="M514 588l-266 776v70h207l217 -656h2l493 656h172v-70l-606 -797l-129 -567h-225z" />
    <glyph glyph-name="Z" unicode="Z" horiz-adv-x="1184" 
d="M6 174l995 1090v6h-690l37 164h955l-41 -181l-998 -1087v-6h733l-34 -160h-998z" />
    <glyph glyph-name="bracketleft" unicode="[" horiz-adv-x="670" 
d="M399 1518h426l-34 -146h-228l-307 -1327h229l-34 -145h-426z" />
    <glyph glyph-name="backslash" unicode="\" horiz-adv-x="705" 
d="M221 1473v45h166l186 -1573v-45h-165z" />
    <glyph glyph-name="bracketright" unicode="]" horiz-adv-x="670" 
d="M-35 45h230l307 1327h-230l35 146h428l-375 -1618h-428z" />
    <glyph glyph-name="asciicircum" unicode="^" horiz-adv-x="854" 
d="M160 993l389 441h158l194 -441v-53h-158l-145 317h-4l-283 -317h-151v53z" />
    <glyph glyph-name="underscore" unicode="_" horiz-adv-x="741" 
d="M-156 -195h727l-32 -137h-727z" />
    <glyph glyph-name="grave" unicode="`" horiz-adv-x="850" 
d="M356 1368v66h199l98 -224v-49h-127z" />
    <glyph glyph-name="a" unicode="a" horiz-adv-x="1034" 
d="M719 0q-21 0 -41 6t-35.5 19.5t-25.5 34.5t-11 51q-54 -53 -126 -87t-165 -34q-65 0 -118 18t-91.5 53.5t-59.5 87t-21 119.5q0 87 33 154.5t94 114t146.5 70.5t190.5 24q77 0 127.5 -10t92.5 -25l20 88q29 129 -18.5 188.5t-153.5 59.5q-95 0 -164.5 -21t-126.5 -53h-65
l35 154q34 15 71 28.5t79.5 23.5t92 15.5t109.5 5.5q98 0 174.5 -24t123.5 -75t61 -131t-11 -191l-154 -664h-63zM383 127q78 0 136.5 34.5t111.5 90.5l49 221q-37 14 -81 22.5t-99 8.5q-133 0 -205 -59t-72 -162q0 -76 42.5 -116t117.5 -40z" />
    <glyph glyph-name="b" unicode="b" horiz-adv-x="1188" 
d="M346 1434h123q22 0 37.5 -5t23 -19.5t7 -41t-10.5 -68.5l-90 -389q34 35 76 66.5t89 55.5t100 38t110 14q61 0 116.5 -21t96.5 -66t65.5 -115t24.5 -168q0 -158 -41 -291t-115 -230t-179 -151.5t-232 -54.5q-59 0 -107 11t-85.5 29t-65.5 40t-49 45q-25 -47 -65.5 -80
t-98.5 -33h-58zM731 926q-46 0 -88.5 -12.5t-82.5 -33.5t-78.5 -49t-75.5 -59l-123 -541q15 -17 34.5 -34.5t46.5 -32t62.5 -24t81.5 -9.5q97 0 171.5 46.5t124.5 125t75.5 181.5t25.5 216q0 59 -13 102t-36.5 70.5t-55.5 40.5t-69 13z" />
    <glyph glyph-name="c" unicode="c" horiz-adv-x="1010" 
d="M518 -12q-113 0 -196.5 31.5t-138.5 88.5t-82 136.5t-27 175.5q0 142 47.5 263.5t132 211t200 140t251.5 50.5q113 0 188 -28.5t123 -71.5l-33 -139h-82q-12 16 -29.5 31t-42.5 27t-57 19t-72 7q-95 0 -172 -41t-131.5 -110.5t-84 -161.5t-29.5 -195q0 -133 61.5 -206
t187.5 -73q49 0 87.5 7.5t70 19.5t56.5 27t47 30h84l-35 -145q-25 -18 -57 -34.5t-72 -30t-88.5 -21.5t-106.5 -8z" />
    <glyph glyph-name="d" unicode="d" horiz-adv-x="1190" 
d="M870 0q-39 0 -64.5 12t-40 33t-19 48t-1.5 57q-69 -71 -155 -116.5t-191 -45.5q-68 0 -128 20.5t-104.5 66t-70.5 117.5t-26 175q0 96 19.5 186.5t56 170t89 146t117.5 114.5t142 74.5t163 26.5q54 0 96 -9t75 -24.5t58 -36t46 -44.5l106 463h115q26 0 43 -5t25 -19
t7 -40.5t-11 -69.5l-297 -1300h-50zM469 137q42 0 81.5 12t78 32.5t74.5 47.5t71 58l125 544q-15 17 -33.5 34t-44 30.5t-58.5 22t-75 8.5q-97 0 -172.5 -45t-127.5 -121.5t-79.5 -176.5t-27.5 -210q0 -124 47 -180t141 -56z" />
    <glyph glyph-name="e" unicode="e" horiz-adv-x="1063" 
d="M506 -12q-106 0 -187.5 29.5t-136.5 85t-83.5 134.5t-28.5 179q0 87 18.5 171t53 158t84.5 136.5t114 107.5t140.5 70.5t164.5 25.5q91 0 159.5 -26t114 -73t68 -114t21.5 -149q0 -54 -9 -111t-24 -114h-696q-2 -20 -2.5 -39t-0.5 -39q0 -143 61 -211t191 -68
q97 0 169 26.5t126 68.5h76l-37 -154q-26 -17 -61 -33.5t-79.5 -30t-98.5 -22t-117 -8.5zM633 946q-62 0 -114 -23t-94 -64.5t-73 -99t-49 -126.5h508q12 55 12 104q0 107 -50 158t-140 51z" />
    <glyph glyph-name="f" unicode="f" horiz-adv-x="657" 
d="M268 926h-131l31 145h133l23 100q34 146 119.5 211.5t218.5 65.5q54 0 94 -6.5t65 -16.5l-28 -129h-78q-36 0 -66 -5.5t-52.5 -20.5t-39 -40.5t-25.5 -64.5l-20 -94h213l-31 -145h-217l-209 -926h-205z" />
    <glyph glyph-name="g" unicode="g" horiz-adv-x="1178" 
d="M379 -346q-71 0 -129 8.5t-104.5 22t-82 31.5t-61.5 36l37 150h67q39 -42 109 -67t164 -25q63 0 117.5 12t98 39.5t75 74t47.5 115.5l35 154q-35 -36 -76.5 -68t-88.5 -56t-98.5 -38t-105.5 -14q-64 0 -121 20.5t-99.5 63.5t-67.5 110t-25 160q0 140 42.5 267t119.5 224
t185.5 154t239.5 57q52 0 95 -10.5t78.5 -27.5t63 -38t48.5 -42q12 21 28 39.5t36 33t44.5 23t53.5 8.5h59l-237 -1026q-26 -111 -75 -186t-118.5 -120.5t-158.5 -65t-195 -19.5zM455 180q46 0 89 13t83.5 35.5t79 52.5t75.5 63l115 502q-15 16 -34 33t-44.5 31t-58.5 23
t-76 9q-99 0 -174.5 -48t-126 -126t-76.5 -177.5t-26 -201.5q0 -112 46 -160.5t128 -48.5z" />
    <glyph glyph-name="h" unicode="h" horiz-adv-x="1167" 
d="M346 1434h123q21 0 36.5 -5t23 -19.5t7 -41t-9.5 -68.5l-90 -389q46 36 95.5 68t103.5 55.5t113 37t124 13.5q61 0 108.5 -22t77 -65.5t37 -107.5t-11.5 -147l-172 -743h-131q-43 0 -55 21t0 79l145 641q22 93 -6 135t-94 42q-81 0 -173.5 -42t-195.5 -114l-174 -762
h-209z" />
    <glyph glyph-name="i" unicode="i" horiz-adv-x="500" 
d="M268 1071h105q27 0 45.5 -5t27.5 -21.5t8.5 -46.5t-12.5 -80l-211 -918h-208zM418 1192q-26 0 -47 9t-36 24.5t-23.5 36.5t-8.5 45q0 25 10 47t27 38t39 25.5t47 9.5t46.5 -9t37.5 -25t24.5 -36.5t8.5 -43.5q0 -26 -10.5 -48.5t-27.5 -38.5t-40 -25t-47 -9z" />
    <glyph glyph-name="j" unicode="j" horiz-adv-x="496" 
d="M-88 -340q-51 0 -80 5.5t-55 15.5l26 120h41q38 0 65 6.5t45.5 21t31 39t20.5 60.5l262 1143h105q28 0 46.5 -5t27 -21.5t7.5 -46.5t-12 -80l-229 -1004q-16 -68 -42.5 -116.5t-64 -79t-86 -44.5t-108.5 -14zM418 1192q-26 0 -47 9t-36 24.5t-23.5 36.5t-8.5 45
q0 25 10 47t27 38t39 25.5t47 9.5t46.5 -9t37.5 -25t24.5 -36.5t8.5 -43.5q0 -26 -10.5 -48.5t-27.5 -38.5t-40 -25t-47 -9z" />
    <glyph glyph-name="k" unicode="k" horiz-adv-x="1040" 
d="M346 1434h123q21 0 36.5 -5t23 -19.5t7 -41t-9.5 -68.5l-168 -729l527 500h182v-59l-434 -396l268 -555v-61h-192l-236 483l-170 -155l-76 -328h-209z" />
    <glyph glyph-name="l" unicode="l" horiz-adv-x="504" 
d="M350 1434h121q22 0 37.5 -5t23 -19.5t7 -41t-10.5 -68.5l-297 -1300h-211z" />
    <glyph glyph-name="m" unicode="m" horiz-adv-x="1751" 
d="M264 1071h66q38 0 62 -11.5t36 -33t13 -52t-5 -67.5q43 36 89 68.5t95.5 57t101.5 38.5t107 14q88 0 145.5 -47t69.5 -137q48 40 98 74t102.5 58.5t107 38t110.5 13.5q61 0 108 -22t75 -65.5t34.5 -107.5t-12.5 -147l-172 -743h-133q-42 0 -54.5 21t1.5 79l145 641
q20 91 -5 134t-87 43q-68 0 -147.5 -39.5t-176.5 -108.5l-4 -27l-172 -743h-209l168 741q20 93 -5 135t-87 42q-68 0 -148 -40.5t-175 -109.5l-177 -768h-211z" />
    <glyph glyph-name="n" unicode="n" horiz-adv-x="1167" 
d="M264 1071h68q37 0 60.5 -11.5t35 -32.5t13 -51t-4.5 -67q46 37 95.5 69t103.5 56t113 37.5t124 13.5q61 0 108.5 -22t77 -65.5t37 -107.5t-11.5 -147l-172 -743h-131q-43 0 -55 21t0 79l145 641q22 93 -6 135t-94 42q-81 0 -173.5 -42t-193.5 -114l-176 -762h-209z" />
    <glyph glyph-name="o" unicode="o" horiz-adv-x="1174" 
d="M526 139q86 0 154 42.5t115.5 113.5t72.5 163t25 191q0 72 -16.5 126t-48 89t-76.5 52.5t-101 17.5q-84 0 -152.5 -42.5t-117 -113t-74.5 -163.5t-26 -193q0 -146 65 -214.5t180 -68.5zM518 -10q-105 0 -187.5 30t-139.5 86.5t-87 137.5t-30 182q0 144 45.5 264.5
t124 208.5t184.5 137t227 49q105 0 188 -31.5t140 -89t87 -138.5t30 -181q0 -144 -43.5 -264t-121.5 -207t-184.5 -135.5t-232.5 -48.5z" />
    <glyph glyph-name="p" unicode="p" horiz-adv-x="1182" 
d="M264 1071h68q37 0 60 -11t35.5 -31.5t15 -49t-2.5 -64.5q36 36 77 67.5t87.5 54t96.5 35.5t104 13q64 0 120 -21t98 -67t66.5 -118t24.5 -174q0 -154 -40.5 -282.5t-115 -221t-179 -144t-232.5 -51.5q-56 0 -101 9t-80 23.5t-61.5 34t-46.5 40.5l-102 -445h-213zM727 926
q-44 0 -84.5 -11.5t-79.5 -32t-77 -48t-76 -58.5l-123 -534q15 -16 35 -32t47 -29t62 -21t81 -8q97 0 171 43.5t123 118t74 174t25 212.5q0 61 -14 104t-38 70t-56.5 39.5t-69.5 12.5z" />
    <glyph glyph-name="q" unicode="q" horiz-adv-x="1190" 
d="M748 170q-34 -35 -74.5 -64.5t-85.5 -52t-95 -35t-104 -12.5q-64 0 -121.5 20t-101.5 63.5t-70 111.5t-26 164q0 100 20.5 192t58 172t91 145.5t120 112.5t143.5 72.5t163 25.5q51 0 93.5 -10t77.5 -26.5t62.5 -37.5t48.5 -44q25 43 63.5 73.5t98.5 30.5h57l-321 -1403
h-213zM459 154q45 0 87 12.5t82 34.5t78 51.5t76 64.5l119 525q-15 16 -33.5 32t-44.5 28.5t-60.5 20t-80.5 7.5q-93 0 -167.5 -46.5t-126 -123.5t-79.5 -176.5t-28 -206.5q0 -62 13 -105t36.5 -69t56.5 -37.5t72 -11.5z" />
    <glyph glyph-name="r" unicode="r" horiz-adv-x="770" 
d="M264 1071h66q40 0 64 -13t35.5 -37t12 -57t-7.5 -73q34 40 72.5 75t81.5 60.5t88.5 40t93.5 14.5q19 0 32.5 -2.5t22.5 -5.5l-39 -176h-36q-56 0 -105.5 -13t-93.5 -35.5t-82 -52t-72 -63.5l-168 -733h-211z" />
    <glyph glyph-name="s" unicode="s" horiz-adv-x="885" 
d="M334 -10q-68 0 -123.5 10t-100 26t-78.5 35.5t-57 38.5l35 146h74q16 -19 40 -38t56 -34t71.5 -24t86.5 -9q111 0 171 45t60 123q0 30 -10.5 51.5t-32.5 38.5t-54.5 31t-76.5 29q-65 22 -115.5 47t-86 57.5t-54 76t-18.5 103.5q0 78 27.5 140.5t80 107t128 68.5t171.5 24
q59 0 108.5 -8.5t90 -22t72 -31.5t55.5 -36l-33 -139h-69q-34 34 -91 60t-141 26q-105 0 -157 -42.5t-52 -113.5q0 -28 10.5 -48t32 -36.5t55 -31t80.5 -29.5q61 -21 111.5 -44t87.5 -55t57.5 -76t20.5 -106q0 -80 -28.5 -146t-83.5 -113.5t-135.5 -74t-184.5 -26.5z" />
    <glyph glyph-name="t" unicode="t" horiz-adv-x="694" 
d="M360 -12q-155 0 -213 84.5t-24 238.5l141 615h-125l31 145h127l68 291h210l-67 -291h223l-33 -145h-225l-141 -623q-20 -85 9.5 -125.5t119.5 -40.5h80l-29 -129q-28 -9 -65 -14.5t-87 -5.5z" />
    <glyph glyph-name="u" unicode="u" horiz-adv-x="1161" 
d="M834 0q-40 0 -66 12t-39.5 33.5t-16.5 50.5t3 64q-44 -35 -90.5 -66.5t-97.5 -55.5t-106 -38t-116 -14q-65 0 -115 21.5t-81 64.5t-39 107t12 149l172 743h135q41 0 53.5 -20t-0.5 -80l-145 -639q-20 -94 7 -136t93 -42q81 0 167.5 40.5t180.5 108.5l177 768h213
l-246 -1071h-55z" />
    <glyph glyph-name="v" unicode="v" horiz-adv-x="1049" 
d="M152 1014v57h202l115 -817h4l445 817h174v-57l-572 -1014h-211z" />
    <glyph glyph-name="w" unicode="w" horiz-adv-x="1540" 
d="M158 1014v57h198l54 -778h4l381 778h166l75 -778h4l363 778h170v-57l-498 -1014h-184l-78 774h-4l-379 -774h-190z" />
    <glyph glyph-name="x" unicode="x" horiz-adv-x="1059" 
d="M-33 59l441 504l-201 449v59h196l166 -379l328 379h172v-59l-405 -459l223 -494v-59h-197l-188 422l-361 -422h-174v59z" />
    <glyph glyph-name="y" unicode="y" horiz-adv-x="1051" 
d="M63 -270l252 374l-165 910v57h198l125 -739h2l443 739h176v-57l-842 -1346h-189v62z" />
    <glyph glyph-name="z" unicode="z" horiz-adv-x="977" 
d="M-18 150l753 770h-538l34 151h791l-35 -149l-758 -770h566l-33 -152h-813z" />
    <glyph glyph-name="braceleft" unicode="{" horiz-adv-x="729" 
d="M387 -100q-150 0 -208 67t-29 197l88 375q12 54 -9.5 85t-78.5 31h-60l33 144h51q66 0 100.5 29.5t47.5 86.5l84 355q13 61 35 107.5t56.5 78t83.5 47t117 15.5h187l-35 -146h-131q-50 0 -76 -25t-39 -77l-82 -352q-18 -80 -64.5 -129.5t-133.5 -65.5v-4q75 -22 100 -72
t6 -131l-84 -369q-12 -52 3 -77t71 -25h125l-35 -145h-123z" />
    <glyph glyph-name="bar" unicode="|" horiz-adv-x="516" 
d="M219 1518h170l-2 -1618h-168v1618z" />
    <glyph glyph-name="braceright" unicode="}" horiz-adv-x="729" 
d="M-33 45h131q51 0 78 25t39 77l86 377q19 81 65 130.5t134 66.5v4q-76 22 -100.5 71.5t-6.5 131.5l78 342q14 52 -2 77t-72 25h-123l33 146h125q149 0 208 -67.5t28 -197.5l-82 -350q-13 -52 9 -83.5t81 -31.5h57l-33 -145h-51q-65 0 -100 -30t-47 -87l-90 -379
q-14 -61 -36 -107.5t-56.5 -77.5t-84 -46.5t-116.5 -15.5h-187z" />
    <glyph glyph-name="asciitilde" unicode="~" horiz-adv-x="764" 
d="M59 530q12 40 31.5 74t47 58.5t61.5 38.5t75 14q39 0 74 -10.5t66 -23.5t58 -23.5t48 -10.5q62 0 86 76h123v-68q-12 -41 -31 -75.5t-46 -59t-61 -38t-75 -13.5q-35 0 -70 11t-67 24t-60 24t-49 11q-32 0 -52.5 -20t-33.5 -58h-125v69z" />
    <glyph glyph-name="uni00A0" unicode="&#xa0;" horiz-adv-x="614" 
 />
    <glyph glyph-name="exclamdown" unicode="&#xa1;" horiz-adv-x="516" 
d="M240 -23l-31 -129h-225l30 129l265 941h143zM410 1292q54 0 87 -35t33 -88q0 -27 -10.5 -50.5t-28 -41t-41.5 -27.5t-51 -10t-50 10t-39.5 27t-26 39.5t-9.5 46.5q0 28 11 52t29.5 41t43 26.5t52.5 9.5z" />
    <glyph glyph-name="cent" unicode="&#xa2;" 
d="M510 -2q-88 14 -153.5 51t-109 92.5t-65.5 127t-22 155.5q0 134 45.5 251.5t126 205.5t190.5 141.5t240 60.5l29 119h139l-29 -123q85 -8 141.5 -34t94.5 -60l-33 -139h-82q-19 26 -58 48.5t-98 29.5l-182 -779q42 3 76.5 10.5t62.5 19t50.5 25t41.5 27.5h82l-34 -145
q-23 -16 -54 -32t-70 -29t-86.5 -22t-105.5 -11l-45 -199h-139zM371 428q0 -111 43 -182t133 -92l178 766q-84 -15 -149.5 -60t-111 -111.5t-69.5 -149t-24 -171.5z" />
    <glyph glyph-name="sterling" unicode="&#xa3;" 
d="M223 786h101q-4 75 -3 146.5t17 142.5q43 181 177 276t343 95q121 0 211.5 -30.5t153.5 -86.5l-35 -153h-82q-45 43 -105.5 70.5t-150.5 27.5q-113 0 -190 -54.5t-103 -164.5q-14 -62 -15 -129t-1 -140h381l-35 -151h-348q-2 -51 -7.5 -102.5t-17.5 -104.5
q-20 -87 -64 -148.5t-98 -103.5h678l-41 -176h-948l33 152q84 37 148.5 104t88.5 164q13 56 16 109t3 106h-142z" />
    <glyph glyph-name="yen" unicode="&#xa5;" 
d="M217 750h291l-211 614v70h203l190 -605h4l449 605h174v-70l-479 -614h292l-30 -134h-346l-27 -124h344l-31 -134h-344l-84 -358h-221l82 358h-346l31 134h346l26 124h-344z" />
    <glyph glyph-name="brokenbar" unicode="&#xa6;" horiz-adv-x="516" 
d="M219 633h170v-733h-170v733zM219 1518h170v-721h-170v721z" />
    <glyph glyph-name="section" unicode="&#xa7;" horiz-adv-x="1075" 
d="M375 -268q-72 0 -130 11.5t-104.5 29t-81 37.5t-59.5 38l35 148h74q19 -21 44.5 -40.5t59 -35.5t75.5 -25.5t93 -9.5q108 0 167.5 40t59.5 118q0 32 -12.5 58.5t-41 51.5t-74.5 49t-113 52q-77 31 -133 63.5t-92.5 70.5t-54 83t-17.5 100q0 65 23 116t64 88.5t98.5 62.5
t125.5 39q-48 42 -69 94t-21 125q0 78 31 142t87.5 110.5t136 72t177.5 25.5q67 0 118.5 -9t92 -23t71 -31.5t54.5 -34.5l-33 -146h-76q-38 34 -93 60t-140 26q-51 0 -94 -11t-73.5 -32t-47.5 -51.5t-17 -69.5q0 -33 9.5 -59t33.5 -49t65 -44t105 -44q77 -29 138.5 -59.5
t105 -69.5t67 -88.5t23.5 -114.5q0 -54 -19.5 -103.5t-58 -90t-96 -71t-133.5 -48.5q46 -39 70 -88t24 -115q0 -81 -30.5 -145.5t-87.5 -109.5t-139.5 -69t-186.5 -24zM465 422q35 -16 68.5 -30t62.5 -30q51 9 94 25t74 39.5t48 56t17 74.5q0 35 -13.5 62.5t-40.5 50.5
t-68.5 43.5t-96.5 42.5q-26 9 -49 18t-45 19q-124 -13 -185 -60.5t-61 -120.5q0 -30 10 -55t33 -47.5t60 -43.5t92 -44z" />
    <glyph glyph-name="dieresis" unicode="&#xa8;" horiz-adv-x="850" 
d="M426 1192q-24 0 -44 8.5t-34.5 23.5t-22.5 35.5t-8 43.5q0 24 9.5 45.5t26 37t38 24.5t45.5 9q25 0 45.5 -9t35.5 -24t23.5 -35t8.5 -42q0 -26 -10 -47t-27 -37t-39 -24.5t-47 -8.5zM776 1192q-49 0 -79.5 32t-30.5 79q0 24 9.5 45.5t26 37t38.5 24.5t46 9t44.5 -9
t35 -24t23 -35t8.5 -42q0 -26 -10 -47t-26.5 -37t-38.5 -24.5t-46 -8.5z" />
    <glyph glyph-name="copyright" unicode="&#xa9;" horiz-adv-x="1632" 
d="M883 317q-95 0 -169 27.5t-125 79.5t-77.5 126.5t-26.5 168.5t30.5 168.5t84.5 126.5t128 80t161 28q50 0 89 -6t69.5 -15t53 -20.5t40.5 -21.5v-131h-76q-12 13 -28 25t-37 21t-48.5 14t-62.5 5q-51 0 -92.5 -18t-71.5 -53t-46.5 -86.5t-16.5 -118.5q0 -137 59 -204
t166 -67q39 0 69.5 6.5t53.5 17t39.5 24t27.5 26.5h68v-121q-18 -14 -43 -28.5t-57.5 -26.5t-73 -19.5t-88.5 -7.5zM862 78q129 0 242.5 42t198 123.5t133.5 200.5t49 273q0 153 -49 272.5t-133.5 201.5t-198 124.5t-242.5 42.5t-242.5 -42.5t-197.5 -124.5t-133 -201.5
t-49 -272.5q0 -154 49 -273t133 -200.5t197.5 -123.5t242.5 -42zM862 -14q-146 0 -278.5 47.5t-233 140.5t-160 229.5t-59.5 313.5t59.5 313.5t160 229.5t233 140.5t278.5 47.5q98 0 190 -21.5t173.5 -63t149 -103.5t116 -143t75.5 -181.5t27 -218.5t-27 -218.5
t-75.5 -181.5t-116 -143t-149 -103.5t-173.5 -63t-190 -21.5z" />
    <glyph glyph-name="ordfeminine" unicode="&#xaa;" horiz-adv-x="907" 
d="M752 528q-47 0 -76 24.5t-29 78.5q-105 -113 -262 -113q-121 0 -188.5 64t-67.5 176q0 79 30.5 137t84.5 95.5t127.5 56t158.5 18.5q56 0 108 -8.5t95 -22.5l12 51q13 58 8 98.5t-25.5 66.5t-55.5 38t-82 12q-78 0 -138 -16.5t-110 -48.5h-63l34 147q62 29 137.5 46.5
t172.5 17.5q90 0 158 -22t109.5 -68.5t53.5 -118t-10 -170.5l-123 -539h-59zM451 647q63 0 116 29t101 76l39 172q-34 11 -75.5 17.5t-86.5 6.5q-51 0 -92.5 -11t-71 -33t-46 -55.5t-16.5 -78.5q0 -63 36 -93t96 -30z" />
    <glyph glyph-name="guillemotleft" unicode="&#xab;" horiz-adv-x="1008" 
d="M78 500l18 88l365 389h168v-53l-361 -400v-6l176 -377v-51h-168zM469 500l18 88l365 389h170v-53l-363 -400v-6l177 -377v-51h-168z" />
    <glyph glyph-name="registered" unicode="&#xae;" horiz-adv-x="838" 
d="M541 717q-74 0 -142 24.5t-119.5 71.5t-82.5 115t-31 155q0 88 31 156t82.5 115t119.5 71.5t142 24.5q73 0 141 -24.5t120.5 -71.5t84 -115t31.5 -156q0 -87 -31.5 -155t-84 -115t-120.5 -71.5t-141 -24.5zM541 784q61 0 115 19t94 57t63 93.5t23 129.5t-23 130t-63 93.5
t-94 56.5t-115 19q-62 0 -116.5 -19t-94.5 -56.5t-63 -93.5t-23 -130t23 -129.5t63 -93.5t94.5 -57t116.5 -19zM545 1040h-49v-141h-101v385h160q77 0 114.5 -31t37.5 -90q0 -35 -17.5 -62t-48.5 -42l74 -125v-35h-94zM547 1106q32 0 45.5 14.5t13.5 42.5q0 25 -12.5 39.5
t-46.5 14.5h-51v-111h51z" />
    <glyph glyph-name="macron" unicode="&#xaf;" horiz-adv-x="850" 
d="M373 1366h495l-32 -145h-496z" />
    <glyph glyph-name="degree" unicode="&#xb0;" horiz-adv-x="698" 
d="M483 1004q36 0 66 12.5t51.5 35.5t34 55.5t12.5 72.5q0 34 -10.5 63t-30 50t-47 32.5t-61.5 11.5q-35 0 -64.5 -12.5t-51 -35.5t-34 -55.5t-12.5 -72.5q0 -35 10.5 -63.5t29.5 -49.5t46 -32.5t61 -11.5zM477 895q-57 0 -105.5 19.5t-84 54.5t-56 83.5t-20.5 106.5
q0 66 24 119t64 90.5t93 57.5t112 20q57 0 106 -19t85 -54t56.5 -84t20.5 -109q0 -66 -24 -119t-65 -89.5t-94.5 -56.5t-111.5 -20z" />
    <glyph glyph-name="acute" unicode="&#xb4;" horiz-adv-x="850" 
d="M508 1210l145 224h203v-66l-231 -207h-117v49z" />
    <glyph glyph-name="paragraph" unicode="&#xb6;" horiz-adv-x="1182" 
d="M569 653h-10q-83 0 -154 21.5t-123.5 63t-82 103t-29.5 142.5q0 127 45.5 213.5t126 139.5t189.5 75.5t237 22.5h461l-375 -1620h-160l340 1464h-160l-339 -1464h-160z" />
    <glyph glyph-name="periodcentered" unicode="&#xb7;" horiz-adv-x="381" 
d="M203 496q-27 0 -49.5 9.5t-38 26t-24.5 38.5t-9 48q0 28 10.5 52t29 42t42.5 28t51 10q28 0 51 -10t39.5 -26.5t25.5 -39t9 -47.5q0 -28 -11.5 -52t-30.5 -41.5t-43.5 -27.5t-51.5 -10z" />
    <glyph glyph-name="cedilla" unicode="&#xb8;" horiz-adv-x="850" 
d="M242 -358q-32 0 -57 3t-44.5 9t-34.5 14.5t-28 18.5l20 90h52q9 -14 28 -22.5t53 -8.5t56 12t22 41q0 22 -18 34.5t-62 12.5h-45l37 154h111l-15 -66q67 -5 98 -41.5t31 -89.5q0 -45 -17.5 -76t-46 -49.5t-65 -27t-75.5 -8.5z" />
    <glyph glyph-name="ordmasculine" unicode="&#xba;" horiz-adv-x="1042" 
d="M567 662q63 0 119.5 30.5t98.5 86t67 132t25 168.5q0 52 -13.5 94.5t-39.5 72.5t-64 46.5t-88 16.5q-62 0 -118 -29t-98.5 -83.5t-68 -133t-25.5 -176.5q0 -112 55.5 -168.5t149.5 -56.5zM561 518q-91 0 -164.5 26.5t-125 76t-79.5 119t-28 155.5q0 122 41 224t110.5 175
t162.5 113.5t198 40.5q86 0 159 -25t126.5 -73t83.5 -118t30 -159q0 -123 -41.5 -225t-112 -175.5t-164 -114t-196.5 -40.5z" />
    <glyph glyph-name="guillemotright" unicode="&#xbb;" horiz-adv-x="1008" 
d="M-8 143l360 398v6l-176 377v53h168l199 -412l-19 -86l-364 -389h-168v53zM383 143l362 398v6l-176 377v53h166l201 -412l-21 -86l-362 -389h-170v53z" />
    <glyph glyph-name="onequarter" unicode="&#xbc;" horiz-adv-x="1442" 
d="M1049 174h-371l31 131l477 473h164l-115 -491h96l-26 -113h-97l-39 -174h-159zM1077 287l72 307h-6l-305 -303v-4h239zM385 1257l-149 -69h-37l30 129l244 117h127l-180 -779h-174zM1292 1493h168l-1286 -1563h-168z" />
    <glyph glyph-name="onehalf" unicode="&#xbd;" horiz-adv-x="1530" 
d="M823 133l258 191q45 32 82 61t63.5 57.5t41 58t14.5 62.5q0 45 -29 69.5t-86 24.5q-54 0 -95.5 -17t-70.5 -42h-63l31 127q45 28 102 44.5t129 16.5q63 0 111 -14.5t80 -41.5t48.5 -64.5t16.5 -83.5q0 -49 -17.5 -90.5t-51.5 -81t-84 -78.5t-115 -84l-168 -119h346
l-31 -129h-542zM385 1257l-149 -69h-37l30 129l244 117h127l-180 -779h-174zM1284 1493h168l-1286 -1563h-168z" />
    <glyph glyph-name="threequarters" unicode="&#xbe;" horiz-adv-x="1534" 
d="M379 647q-88 0 -157 25t-116 67l25 109h64q10 -13 25.5 -27.5t37.5 -26.5t50 -20t63 -8q65 0 107 31.5t42 91.5q0 54 -34 80t-93 26h-65l26 113h82q65 0 102 29t37 82q0 52 -29 76t-91 24q-48 0 -85 -15t-63 -32h-61l26 117q38 23 93.5 39t121.5 16q57 0 104 -12t80 -37
t51.5 -63t18.5 -89q0 -83 -50 -130t-134 -64v-5q28 -7 52 -21t41.5 -34.5t27.5 -47.5t10 -60q0 -56 -24 -99.5t-66 -73.5t-98.5 -45.5t-120.5 -15.5zM1145 174h-371l31 131l477 473h164l-115 -491h96l-26 -113h-96l-39 -174h-160zM1174 287l71 307h-6l-305 -303v-4h240z
M1405 1493h168l-1286 -1563h-168z" />
    <glyph glyph-name="questiondown" unicode="&#xbf;" horiz-adv-x="922" 
d="M762 918q-5 -75 -20 -133t-44 -107.5t-74 -94.5t-110 -94q-42 -30 -89 -61.5t-87.5 -70t-67 -87t-26.5 -112.5q0 -43 15.5 -73t41.5 -48.5t61 -26.5t74 -8q91 0 153.5 24.5t110.5 61.5h86l-36 -162q-60 -40 -146.5 -66t-202.5 -26q-72 0 -140.5 16.5t-122 53.5t-86 96.5
t-32.5 146.5q0 75 25.5 135.5t68.5 111.5t99.5 94t118.5 83q59 37 106 70.5t81.5 72.5t55.5 87.5t29 116.5h158zM729 1292q27 0 49.5 -9.5t39 -26t25.5 -39t9 -48.5q0 -27 -10.5 -50.5t-29 -41t-42.5 -27.5t-51 -10q-28 0 -51 10t-39.5 27t-25.5 39.5t-9 46.5q0 28 11 52
t29.5 41t43 26.5t51.5 9.5z" />
    <glyph glyph-name="Agrave" unicode="&#xc0;" horiz-adv-x="1337" 
d="M-47 66l786 1368h244l180 -1368v-66h-217l-49 410h-543l-225 -410h-176v66zM444 571h435l-76 639h-4zM805 1479l-158 180v65h199l86 -196v-49h-127z" />
    <glyph glyph-name="Aacute" unicode="&#xc1;" horiz-adv-x="1337" 
d="M-47 66l786 1368h244l180 -1368v-66h-217l-49 410h-543l-225 -410h-176v66zM444 571h435l-76 639h-4zM793 1528l125 196h202v-65l-211 -180h-116v49z" />
    <glyph glyph-name="Acircumflex" unicode="&#xc2;" horiz-adv-x="1337" 
d="M-47 66l786 1368h244l180 -1368v-66h-217l-49 410h-543l-225 -410h-176v66zM444 571h435l-76 639h-4zM598 1538l217 193h148l147 -193v-59h-121l-116 112l-166 -112h-109v59z" />
    <glyph glyph-name="Atilde" unicode="&#xc3;" horiz-adv-x="1337" 
d="M-47 66l786 1368h244l180 -1368v-66h-217l-49 410h-543l-225 -410h-176v66zM444 571h435l-76 639h-4zM981 1491q-35 0 -64.5 10.5t-56 23.5t-49 23.5t-43.5 10.5q-34 0 -52.5 -18t-29.5 -52h-114v57q26 78 74 122t120 44q34 0 64.5 -10t57 -21.5t50.5 -21.5t45 -10
q31 0 48.5 18t29.5 49h115v-59q-28 -78 -75.5 -122t-119.5 -44z" />
    <glyph glyph-name="Adieresis" unicode="&#xc4;" horiz-adv-x="1337" 
d="M-47 66l786 1368h244l180 -1368v-66h-217l-49 410h-543l-225 -410h-176v66zM444 571h435l-76 639h-4zM696 1489q-24 0 -44 8.5t-34.5 23.5t-23 35t-8.5 43q0 25 10 46t26.5 37t38.5 25t46 9t44.5 -9t35 -24t22.5 -35t8 -42q0 -26 -9.5 -47t-26 -37t-38.5 -24.5t-47 -8.5z
M1047 1489q-50 0 -80.5 32t-30.5 78q0 25 9.5 46t26 37t38.5 25t47 9q24 0 44 -9t34.5 -24t23 -35t8.5 -42q0 -26 -10 -47t-26.5 -37t-38 -24.5t-45.5 -8.5z" />
    <glyph glyph-name="Aring" unicode="&#xc5;" horiz-adv-x="1335" 
d="M-47 66l786 1368h244l180 -1368v-66h-217l-49 410h-543l-225 -410h-176v66zM444 571h435l-76 639h-4zM882 1485q-39 0 -73.5 12t-60.5 35t-41 56.5t-15 76.5q0 47 17.5 85t46 64.5t65.5 41t77 14.5q39 0 74 -12.5t61 -36.5t41 -58t15 -77q0 -47 -17.5 -84t-46.5 -63
t-66 -40t-77 -14zM884 1585q40 0 68 28t28 73q0 37 -24 60t-62 23q-40 0 -66 -27t-26 -75q0 -38 22.5 -60t59.5 -22z" />
    <glyph glyph-name="AE" unicode="&#xc6;" horiz-adv-x="1921" 
d="M-61 66l997 1368h1069l-39 -168h-645l-107 -453h486l-37 -160h-483l-113 -489h690l-37 -164h-915l94 412h-487l-295 -412h-178v66zM526 573h410l160 693h-74z" />
    <glyph glyph-name="Ccedilla" unicode="&#xc7;" horiz-adv-x="1290" 
d="M707 -12q-17 0 -33.5 1t-32.5 1l-12 -56q66 -5 97.5 -41.5t31.5 -89.5q0 -45 -17.5 -76t-47 -49.5t-66.5 -27t-76 -8.5q-63 0 -99.5 12.5t-62.5 32.5l21 90h51q9 -14 28.5 -22.5t53.5 -8.5t56 12t22 41q0 22 -19 34.5t-61 12.5h-45l36 158q-95 21 -171.5 65t-130 113
t-82.5 162t-29 211q0 109 24 218t71 208t116.5 184t160.5 147.5t203 98t244 35.5t225 -28t162 -79l-37 -155h-82q-48 46 -113.5 71t-164.5 25q-101 0 -183.5 -31.5t-147 -86t-112 -126.5t-78.5 -153t-46 -165.5t-15 -164.5q0 -203 97 -302t276 -99q106 0 188.5 30.5
t147.5 79.5h92l-39 -168q-71 -48 -169 -77t-232 -29z" />
    <glyph glyph-name="Egrave" unicode="&#xc8;" horiz-adv-x="1167" 
d="M375 1434h876l-39 -168h-651l-104 -453h491l-37 -160h-491l-113 -489h699l-37 -164h-924zM772 1479l-158 180v65h199l86 -196v-49h-127z" />
    <glyph glyph-name="Eacute" unicode="&#xc9;" horiz-adv-x="1167" 
d="M375 1434h876l-39 -168h-651l-104 -453h491l-37 -160h-491l-113 -489h699l-37 -164h-924zM746 1528l125 196h202v-65l-211 -180h-116v49z" />
    <glyph glyph-name="Ecircumflex" unicode="&#xca;" horiz-adv-x="1167" 
d="M375 1434h876l-39 -168h-651l-104 -453h491l-37 -160h-491l-113 -489h699l-37 -164h-924zM565 1538l217 193h148l147 -193v-59h-121l-116 112l-166 -112h-109v59z" />
    <glyph glyph-name="Edieresis" unicode="&#xcb;" horiz-adv-x="1167" 
d="M375 1434h876l-39 -168h-651l-104 -453h491l-37 -160h-491l-113 -489h699l-37 -164h-924zM655 1489q-24 0 -44 8.5t-34.5 23.5t-23 35t-8.5 43q0 25 10 46t26.5 37t38.5 25t46 9t44.5 -9t35 -24t22.5 -35t8 -42q0 -26 -9.5 -47t-26 -37t-38.5 -24.5t-47 -8.5zM1006 1489
q-50 0 -80.5 32t-30.5 78q0 25 9.5 46t26 37t38.5 25t47 9q24 0 44 -9t34.5 -24t23 -35t8.5 -42q0 -26 -10 -47t-26.5 -37t-38 -24.5t-45.5 -8.5z" />
    <glyph glyph-name="Igrave" unicode="&#xcc;" horiz-adv-x="563" 
d="M381 1434h225l-330 -1434h-225zM449 1479l-158 180v65h199l86 -196v-49h-127z" />
    <glyph glyph-name="Iacute" unicode="&#xcd;" horiz-adv-x="563" 
d="M381 1434h225l-330 -1434h-225zM433 1528l125 196h202v-65l-211 -180h-116v49z" />
    <glyph glyph-name="Icircumflex" unicode="&#xce;" horiz-adv-x="563" 
d="M381 1434h225l-330 -1434h-225zM244 1538l217 193h148l147 -193v-59h-121l-116 112l-166 -112h-109v59z" />
    <glyph glyph-name="Idieresis" unicode="&#xcf;" horiz-adv-x="563" 
d="M381 1434h225l-330 -1434h-225zM339 1489q-24 0 -44 8.5t-34.5 23.5t-23 35t-8.5 43q0 25 10 46t26.5 37t38.5 25t46 9t44.5 -9t35 -24t22.5 -35t8 -42q0 -26 -9.5 -47t-26 -37t-38.5 -24.5t-47 -8.5zM690 1489q-50 0 -80.5 32t-30.5 78q0 25 9.5 46t26 37t38.5 25t47 9
q24 0 44 -9t34.5 -24t23 -35t8.5 -42q0 -26 -10 -47t-26.5 -37t-38 -24.5t-45.5 -8.5z" />
    <glyph glyph-name="Eth" unicode="&#xd0;" horiz-adv-x="1432" 
d="M86 797h141l148 637h422q139 0 249 -38.5t186.5 -111.5t116.5 -179.5t40 -242.5q0 -109 -23 -215.5t-68.5 -202.5t-113 -177.5t-156 -140.5t-198 -92.5t-238.5 -33.5h-547l145 635h-141zM586 164q102 0 183.5 29.5t145 80.5t109.5 119.5t75.5 146t43.5 160t14 162.5
q0 86 -20 160.5t-63.5 129t-113 85.5t-169.5 31h-232l-108 -471h360l-39 -162h-358l-109 -471h281z" />
    <glyph glyph-name="Ntilde" unicode="&#xd1;" horiz-adv-x="1421" 
d="M375 1434h260l389 -1069h6l248 1069h192l-329 -1434h-207l-424 1163h-6l-266 -1163h-193zM1085 1491q-35 0 -64.5 10.5t-56 23.5t-49 23.5t-43.5 10.5q-34 0 -52.5 -18t-29.5 -52h-114v57q26 78 74 122t120 44q34 0 64.5 -10t57 -21.5t50.5 -21.5t45 -10q31 0 48.5 18
t29.5 49h115v-59q-28 -78 -75.5 -122t-119.5 -44z" />
    <glyph glyph-name="Ograve" unicode="&#xd2;" horiz-adv-x="1503" 
d="M709 147q87 0 160 31t131 84.5t102.5 124t73.5 150t44 163t15 162.5q0 85 -19 162t-62 135.5t-112 92.5t-168 34q-87 0 -160 -31.5t-131.5 -84.5t-103 -124.5t-74 -150.5t-44.5 -162.5t-15 -161.5q0 -90 20.5 -167.5t65 -134.5t113 -89.5t164.5 -32.5zM700 -12
q-137 0 -244.5 42.5t-182.5 119.5t-114.5 185.5t-39.5 239.5q0 111 24 218.5t69.5 204t112 179t151 142t186 93.5t217.5 34q136 0 244.5 -42.5t183.5 -120t115 -185.5t40 -238q0 -108 -23 -214.5t-68 -203.5t-110 -180t-150 -144t-188 -95.5t-223 -34.5zM858 1479l-158 180
v65h199l86 -196v-49h-127z" />
    <glyph glyph-name="Oacute" unicode="&#xd3;" horiz-adv-x="1503" 
d="M709 147q87 0 160 31t131 84.5t102.5 124t73.5 150t44 163t15 162.5q0 85 -19 162t-62 135.5t-112 92.5t-168 34q-87 0 -160 -31.5t-131.5 -84.5t-103 -124.5t-74 -150.5t-44.5 -162.5t-15 -161.5q0 -90 20.5 -167.5t65 -134.5t113 -89.5t164.5 -32.5zM700 -12
q-137 0 -244.5 42.5t-182.5 119.5t-114.5 185.5t-39.5 239.5q0 111 24 218.5t69.5 204t112 179t151 142t186 93.5t217.5 34q136 0 244.5 -42.5t183.5 -120t115 -185.5t40 -238q0 -108 -23 -214.5t-68 -203.5t-110 -180t-150 -144t-188 -95.5t-223 -34.5zM842 1528l125 196
h202v-65l-211 -180h-116v49z" />
    <glyph glyph-name="Ocircumflex" unicode="&#xd4;" horiz-adv-x="1503" 
d="M709 147q87 0 160 31t131 84.5t102.5 124t73.5 150t44 163t15 162.5q0 85 -19 162t-62 135.5t-112 92.5t-168 34q-87 0 -160 -31.5t-131.5 -84.5t-103 -124.5t-74 -150.5t-44.5 -162.5t-15 -161.5q0 -90 20.5 -167.5t65 -134.5t113 -89.5t164.5 -32.5zM700 -12
q-137 0 -244.5 42.5t-182.5 119.5t-114.5 185.5t-39.5 239.5q0 111 24 218.5t69.5 204t112 179t151 142t186 93.5t217.5 34q136 0 244.5 -42.5t183.5 -120t115 -185.5t40 -238q0 -108 -23 -214.5t-68 -203.5t-110 -180t-150 -144t-188 -95.5t-223 -34.5zM651 1538l217 193
h148l147 -193v-59h-121l-116 112l-166 -112h-109v59z" />
    <glyph glyph-name="Otilde" unicode="&#xd5;" horiz-adv-x="1503" 
d="M709 147q87 0 160 31t131 84.5t102.5 124t73.5 150t44 163t15 162.5q0 85 -19 162t-62 135.5t-112 92.5t-168 34q-87 0 -160 -31.5t-131.5 -84.5t-103 -124.5t-74 -150.5t-44.5 -162.5t-15 -161.5q0 -90 20.5 -167.5t65 -134.5t113 -89.5t164.5 -32.5zM700 -12
q-137 0 -244.5 42.5t-182.5 119.5t-114.5 185.5t-39.5 239.5q0 111 24 218.5t69.5 204t112 179t151 142t186 93.5t217.5 34q136 0 244.5 -42.5t183.5 -120t115 -185.5t40 -238q0 -108 -23 -214.5t-68 -203.5t-110 -180t-150 -144t-188 -95.5t-223 -34.5zM1042 1491
q-35 0 -64.5 10.5t-56 23.5t-49 23.5t-43.5 10.5q-34 0 -52.5 -18t-29.5 -52h-114v57q26 78 74 122t120 44q34 0 64.5 -10t57 -21.5t50.5 -21.5t45 -10q31 0 48.5 18t29.5 49h115v-59q-28 -78 -75.5 -122t-119.5 -44z" />
    <glyph glyph-name="Odieresis" unicode="&#xd6;" horiz-adv-x="1503" 
d="M709 147q87 0 160 31t131 84.5t102.5 124t73.5 150t44 163t15 162.5q0 85 -19 162t-62 135.5t-112 92.5t-168 34q-87 0 -160 -31.5t-131.5 -84.5t-103 -124.5t-74 -150.5t-44.5 -162.5t-15 -161.5q0 -90 20.5 -167.5t65 -134.5t113 -89.5t164.5 -32.5zM700 -12
q-137 0 -244.5 42.5t-182.5 119.5t-114.5 185.5t-39.5 239.5q0 111 24 218.5t69.5 204t112 179t151 142t186 93.5t217.5 34q136 0 244.5 -42.5t183.5 -120t115 -185.5t40 -238q0 -108 -23 -214.5t-68 -203.5t-110 -180t-150 -144t-188 -95.5t-223 -34.5zM745 1489
q-24 0 -44 8.5t-34.5 23.5t-23 35t-8.5 43q0 25 10 46t26.5 37t38.5 25t46 9t44.5 -9t35 -24t22.5 -35t8 -42q0 -26 -9.5 -47t-26 -37t-38.5 -24.5t-47 -8.5zM1096 1489q-50 0 -80.5 32t-30.5 78q0 25 9.5 46t26 37t38.5 25t47 9q24 0 44 -9t34.5 -24t23 -35t8.5 -42
q0 -26 -10 -47t-26.5 -37t-38 -24.5t-45.5 -8.5z" />
    <glyph glyph-name="multiply" unicode="&#xd7;" 
d="M176 389l365 309l-238 310l133 108l234 -305l360 307l96 -119l-362 -311l237 -307l-131 -109l-235 306l-361 -308z" />
    <glyph glyph-name="Oslash" unicode="&#xd8;" horiz-adv-x="1503" 
d="M700 -12q-112 0 -205 29.5t-165 84.5l-133 -149h-144v45l180 201q-57 75 -85.5 170t-28.5 206t24 218.5t69.5 204t112 179t151 142t186 93.5t217.5 34q112 0 206 -31t166 -88l123 137h144v-45l-170 -188q55 -76 84.5 -169t29.5 -202q0 -108 -23 -214.5t-67.5 -203.5
t-110 -180t-150 -144t-188 -95.5t-223.5 -34.5zM342 571q0 -60 8 -114t25 -101l753 836q-43 43 -105 68.5t-149 25.5t-160 -31.5t-132.5 -84.5t-104 -124.5t-75 -150.5t-45.5 -162.5t-15 -161.5zM711 147q87 0 160 31t131 84.5t102.5 124t73.5 150t44 163t15 162.5
q0 56 -8 108.5t-25 100.5l-753 -835q45 -42 108.5 -65.5t151.5 -23.5z" />
    <glyph glyph-name="Ugrave" unicode="&#xd9;" horiz-adv-x="1397" 
d="M653 -12q-137 0 -243 36t-171 107.5t-86 177.5t11 246l203 879h225l-209 -904q-20 -87 -13 -156t42 -117t98.5 -73.5t157.5 -25.5q73 0 132.5 16.5t106 54t79.5 98.5t54 150l219 957h193l-223 -971q-27 -115 -74.5 -203.5t-118 -149t-166 -91.5t-217.5 -31zM868 1479
l-158 180v65h199l86 -196v-49h-127z" />
    <glyph glyph-name="Uacute" unicode="&#xda;" horiz-adv-x="1397" 
d="M653 -12q-137 0 -243 36t-171 107.5t-86 177.5t11 246l203 879h225l-209 -904q-20 -87 -13 -156t42 -117t98.5 -73.5t157.5 -25.5q73 0 132.5 16.5t106 54t79.5 98.5t54 150l219 957h193l-223 -971q-27 -115 -74.5 -203.5t-118 -149t-166 -91.5t-217.5 -31zM848 1528
l125 196h202v-65l-211 -180h-116v49z" />
    <glyph glyph-name="Ucircumflex" unicode="&#xdb;" horiz-adv-x="1397" 
d="M653 -12q-137 0 -243 36t-171 107.5t-86 177.5t11 246l203 879h225l-209 -904q-20 -87 -13 -156t42 -117t98.5 -73.5t157.5 -25.5q73 0 132.5 16.5t106 54t79.5 98.5t54 150l219 957h193l-223 -971q-27 -115 -74.5 -203.5t-118 -149t-166 -91.5t-217.5 -31zM661 1538
l217 193h148l147 -193v-59h-121l-116 112l-166 -112h-109v59z" />
    <glyph glyph-name="Udieresis" unicode="&#xdc;" horiz-adv-x="1397" 
d="M653 -12q-137 0 -243 36t-171 107.5t-86 177.5t11 246l203 879h225l-209 -904q-20 -87 -13 -156t42 -117t98.5 -73.5t157.5 -25.5q73 0 132.5 16.5t106 54t79.5 98.5t54 150l219 957h193l-223 -971q-27 -115 -74.5 -203.5t-118 -149t-166 -91.5t-217.5 -31zM745 1489
q-24 0 -44 8.5t-34.5 23.5t-23 35t-8.5 43q0 25 10 46t26.5 37t38.5 25t46 9t44.5 -9t35 -24t22.5 -35t8 -42q0 -26 -9.5 -47t-26 -37t-38.5 -24.5t-47 -8.5zM1096 1489q-50 0 -80.5 32t-30.5 78q0 25 9.5 46t26 37t38.5 25t47 9q24 0 44 -9t34.5 -24t23 -35t8.5 -42
q0 -26 -10 -47t-26.5 -37t-38 -24.5t-45.5 -8.5z" />
    <glyph glyph-name="Yacute" unicode="&#xdd;" horiz-adv-x="1196" 
d="M514 588l-266 776v70h207l217 -656h2l493 656h172v-70l-606 -797l-129 -567h-225zM746 1528l125 196h202v-65l-211 -180h-116v49z" />
    <glyph glyph-name="Thorn" unicode="&#xde;" horiz-adv-x="1202" 
d="M375 1434h225l-65 -279h170q230 0 350.5 -93t120.5 -274q0 -123 -43.5 -214t-124 -151t-194 -89t-253.5 -29h-223l-68 -305h-225zM573 461q88 0 159.5 18t121.5 57.5t77 103t27 155.5q0 100 -66.5 147t-203.5 47h-190l-123 -528h198z" />
    <glyph glyph-name="germandbls" unicode="&#xdf;" horiz-adv-x="1204" 
d="M717 -10q-102 0 -173.5 23.5t-117.5 58.5l31 143h69q26 -34 78.5 -52t114.5 -18q51 0 88 12t61 31.5t35.5 45t11.5 53.5q0 30 -11.5 52.5t-32.5 41.5t-50 36t-63 36q-47 25 -82 49.5t-58.5 51.5t-35 57t-11.5 67q0 41 16 76.5t43.5 68.5t64 64.5t77.5 64.5q39 31 73 57
t59 51.5t39.5 52t14.5 58.5q0 57 -46.5 92t-137.5 35q-71 0 -123 -20t-89 -55.5t-60.5 -84t-36.5 -106.5l-236 -1032h-211l238 1038q20 90 60.5 165.5t105.5 130.5t155 85.5t209 30.5q82 0 151.5 -18.5t119.5 -53t78 -84t28 -112.5q0 -49 -16.5 -89t-46.5 -75t-71.5 -67
t-92.5 -66q-35 -24 -66.5 -46t-55.5 -43t-38 -41.5t-14 -41.5q0 -32 33.5 -57.5t101.5 -63.5q49 -29 89 -58t68 -63t43 -74.5t15 -91.5q0 -71 -26.5 -129t-77 -99t-124 -64t-167.5 -23z" />
    <glyph glyph-name="agrave" unicode="&#xe0;" horiz-adv-x="1034" 
d="M719 0q-21 0 -41 6t-35.5 19.5t-25.5 34.5t-11 51q-54 -53 -126 -87t-165 -34q-65 0 -118 18t-91.5 53.5t-59.5 87t-21 119.5q0 87 33 154.5t94 114t146.5 70.5t190.5 24q77 0 127.5 -10t92.5 -25l20 88q29 129 -18.5 188.5t-153.5 59.5q-95 0 -164.5 -21t-126.5 -53h-65
l35 154q34 15 71 28.5t79.5 23.5t92 15.5t109.5 5.5q98 0 174.5 -24t123.5 -75t61 -131t-11 -191l-154 -664h-63zM383 127q78 0 136.5 34.5t111.5 90.5l49 221q-37 14 -81 22.5t-99 8.5q-133 0 -205 -59t-72 -162q0 -76 42.5 -116t117.5 -40zM393 1368v66h199l98 -224v-49
h-127z" />
    <glyph glyph-name="aacute" unicode="&#xe1;" horiz-adv-x="1034" 
d="M719 0q-21 0 -41 6t-35.5 19.5t-25.5 34.5t-11 51q-54 -53 -126 -87t-165 -34q-65 0 -118 18t-91.5 53.5t-59.5 87t-21 119.5q0 87 33 154.5t94 114t146.5 70.5t190.5 24q77 0 127.5 -10t92.5 -25l20 88q29 129 -18.5 188.5t-153.5 59.5q-95 0 -164.5 -21t-126.5 -53h-65
l35 154q34 15 71 28.5t79.5 23.5t92 15.5t109.5 5.5q98 0 174.5 -24t123.5 -75t61 -131t-11 -191l-154 -664h-63zM383 127q78 0 136.5 34.5t111.5 90.5l49 221q-37 14 -81 22.5t-99 8.5q-133 0 -205 -59t-72 -162q0 -76 42.5 -116t117.5 -40zM555 1210l145 224h203v-66
l-231 -207h-117v49z" />
    <glyph glyph-name="acircumflex" unicode="&#xe2;" horiz-adv-x="1034" 
d="M719 0q-21 0 -41 6t-35.5 19.5t-25.5 34.5t-11 51q-54 -53 -126 -87t-165 -34q-65 0 -118 18t-91.5 53.5t-59.5 87t-21 119.5q0 87 33 154.5t94 114t146.5 70.5t190.5 24q77 0 127.5 -10t92.5 -25l20 88q29 129 -18.5 188.5t-153.5 59.5q-95 0 -164.5 -21t-126.5 -53h-65
l35 154q34 15 71 28.5t79.5 23.5t92 15.5t109.5 5.5q98 0 174.5 -24t123.5 -75t61 -131t-11 -191l-154 -664h-63zM383 127q78 0 136.5 34.5t111.5 90.5l49 221q-37 14 -81 22.5t-99 8.5q-133 0 -205 -59t-72 -162q0 -76 42.5 -116t117.5 -40zM359 1219l227 215h147l146 -215
v-58h-121l-115 135l-174 -135h-110v58z" />
    <glyph glyph-name="atilde" unicode="&#xe3;" horiz-adv-x="1034" 
d="M719 0q-21 0 -41 6t-35.5 19.5t-25.5 34.5t-11 51q-54 -53 -126 -87t-165 -34q-65 0 -118 18t-91.5 53.5t-59.5 87t-21 119.5q0 87 33 154.5t94 114t146.5 70.5t190.5 24q77 0 127.5 -10t92.5 -25l20 88q29 129 -18.5 188.5t-153.5 59.5q-95 0 -164.5 -21t-126.5 -53h-65
l35 154q34 15 71 28.5t79.5 23.5t92 15.5t109.5 5.5q98 0 174.5 -24t123.5 -75t61 -131t-11 -191l-154 -664h-63zM383 127q78 0 136.5 34.5t111.5 90.5l49 221q-37 14 -81 22.5t-99 8.5q-133 0 -205 -59t-72 -162q0 -76 42.5 -116t117.5 -40zM755 1180q-34 0 -63.5 10.5
t-56 23t-49.5 23t-44 10.5q-34 0 -51.5 -18t-30.5 -53h-114v59q26 77 74.5 121.5t119.5 44.5q34 0 64.5 -10.5t57 -22.5t50.5 -22.5t45 -10.5q32 0 49 19.5t29 50.5h115v-59q-26 -79 -73 -122.5t-122 -43.5z" />
    <glyph glyph-name="adieresis" unicode="&#xe4;" horiz-adv-x="1034" 
d="M719 0q-21 0 -41 6t-35.5 19.5t-25.5 34.5t-11 51q-54 -53 -126 -87t-165 -34q-65 0 -118 18t-91.5 53.5t-59.5 87t-21 119.5q0 87 33 154.5t94 114t146.5 70.5t190.5 24q77 0 127.5 -10t92.5 -25l20 88q29 129 -18.5 188.5t-153.5 59.5q-95 0 -164.5 -21t-126.5 -53h-65
l35 154q34 15 71 28.5t79.5 23.5t92 15.5t109.5 5.5q98 0 174.5 -24t123.5 -75t61 -131t-11 -191l-154 -664h-63zM383 127q78 0 136.5 34.5t111.5 90.5l49 221q-37 14 -81 22.5t-99 8.5q-133 0 -205 -59t-72 -162q0 -76 42.5 -116t117.5 -40zM467 1192q-24 0 -44 8.5
t-34.5 23.5t-22.5 35.5t-8 43.5q0 24 9.5 45.5t26 37t38 24.5t45.5 9q25 0 45.5 -9t35.5 -24t23.5 -35t8.5 -42q0 -26 -10 -47t-27 -37t-39 -24.5t-47 -8.5zM817 1192q-49 0 -79.5 32t-30.5 79q0 24 9.5 45.5t26 37t38.5 24.5t46 9t44.5 -9t35 -24t23 -35t8.5 -42
q0 -26 -10 -47t-26.5 -37t-38.5 -24.5t-46 -8.5z" />
    <glyph glyph-name="aring" unicode="&#xe5;" horiz-adv-x="1034" 
d="M719 0q-21 0 -41 6t-35.5 19.5t-25.5 34.5t-11 51q-54 -53 -126 -87t-165 -34q-65 0 -118 18t-91.5 53.5t-59.5 87t-21 119.5q0 87 33 154.5t94 114t146.5 70.5t190.5 24q77 0 127.5 -10t92.5 -25l20 88q29 129 -18.5 188.5t-153.5 59.5q-95 0 -164.5 -21t-126.5 -53h-65
l35 154q34 15 71 28.5t79.5 23.5t92 15.5t109.5 5.5q98 0 174.5 -24t123.5 -75t61 -131t-11 -191l-154 -664h-63zM383 127q78 0 136.5 34.5t111.5 90.5l49 221q-37 14 -81 22.5t-99 8.5q-133 0 -205 -59t-72 -162q0 -76 42.5 -116t117.5 -40zM645 1266q41 0 69 27.5t28 72.5
q0 38 -23.5 62t-60.5 24q-42 0 -67.5 -28t-25.5 -76q0 -39 22.5 -60.5t57.5 -21.5zM645 1167q-39 0 -74 12t-61 35t-41.5 56.5t-15.5 77.5q0 46 17.5 83t46 63.5t66 41t77.5 14.5q39 0 74 -12.5t61 -36.5t41.5 -58t15.5 -77q0 -47 -17.5 -84t-46.5 -62.5t-66.5 -39
t-76.5 -13.5z" />
    <glyph glyph-name="ae" unicode="&#xe6;" horiz-adv-x="1681" 
d="M334 -10q-72 0 -129 18t-97 53.5t-61.5 87t-21.5 119.5q0 87 33 155t94 114.5t146.5 71t190.5 24.5h228l12 51q29 129 -18.5 188.5t-153.5 59.5q-95 0 -164.5 -21t-126.5 -53h-65l35 154q34 15 71 28.5t79.5 23.5t92 15.5t109.5 5.5q118 0 197.5 -38.5t111.5 -122.5
q72 75 167 118t208 43q90 0 157 -26t110.5 -73t65 -114t21.5 -149q0 -54 -9.5 -111t-23.5 -114h-698q-2 -20 -2 -39v-39q0 -143 62 -211t190 -68q97 0 170 26.5t127 68.5h76l-35 -150q-27 -17 -63 -34.5t-80.5 -31.5t-98.5 -23t-117 -9q-142 0 -238.5 52t-146.5 146
q-32 -40 -72 -75.5t-90 -62.5t-110.5 -42.5t-132.5 -15.5zM688 416q0 21 0.5 41.5t3.5 40.5h-192q-134 0 -205.5 -56t-71.5 -159q0 -76 43 -116t121 -40q52 0 97.5 14.5t84.5 39.5t71 58t56 70q-5 25 -6.5 51.5t-1.5 55.5zM1257 946q-61 0 -114 -23t-96.5 -64t-75.5 -98.5
t-51 -127.5h510q6 26 9 53t3 51q0 107 -48.5 158t-136.5 51z" />
    <glyph glyph-name="ccedilla" unicode="&#xe7;" horiz-adv-x="1010" 
d="M518 -12h-18t-17 2l-12 -56q66 -5 98.5 -41.5t32.5 -89.5q0 -45 -17.5 -76t-46.5 -49.5t-66.5 -27t-76.5 -8.5q-63 0 -99.5 12.5t-64.5 32.5l23 90h51q8 -14 27.5 -22.5t54.5 -8.5q32 0 54 12t22 41q0 22 -18 34.5t-60 12.5h-45l35 156q-76 18 -132.5 56t-94 91.5
t-56 122t-18.5 148.5q0 142 47.5 263.5t132 211t200 140t251.5 50.5q113 0 188 -28.5t123 -71.5l-33 -139h-82q-12 16 -29.5 31t-42.5 27t-57 19t-72 7q-95 0 -172 -41t-131.5 -110.5t-84 -161.5t-29.5 -195q0 -133 61.5 -206t187.5 -73q49 0 87.5 7.5t70 19.5t56.5 27
t47 30h84l-35 -145q-25 -18 -57 -34.5t-72 -30t-88.5 -21.5t-106.5 -8z" />
    <glyph glyph-name="egrave" unicode="&#xe8;" horiz-adv-x="1063" 
d="M506 -12q-106 0 -187.5 29.5t-136.5 85t-83.5 134.5t-28.5 179q0 87 18.5 171t53 158t84.5 136.5t114 107.5t140.5 70.5t164.5 25.5q91 0 159.5 -26t114 -73t68 -114t21.5 -149q0 -54 -9 -111t-24 -114h-696q-2 -20 -2.5 -39t-0.5 -39q0 -143 61 -211t191 -68
q97 0 169 26.5t126 68.5h76l-37 -154q-26 -17 -61 -33.5t-79.5 -30t-98.5 -22t-117 -8.5zM633 946q-62 0 -114 -23t-94 -64.5t-73 -99t-49 -126.5h508q12 55 12 104q0 107 -50 158t-140 51zM428 1368v66h199l98 -224v-49h-127z" />
    <glyph glyph-name="eacute" unicode="&#xe9;" horiz-adv-x="1063" 
d="M506 -12q-106 0 -187.5 29.5t-136.5 85t-83.5 134.5t-28.5 179q0 87 18.5 171t53 158t84.5 136.5t114 107.5t140.5 70.5t164.5 25.5q91 0 159.5 -26t114 -73t68 -114t21.5 -149q0 -54 -9 -111t-24 -114h-696q-2 -20 -2.5 -39t-0.5 -39q0 -143 61 -211t191 -68
q97 0 169 26.5t126 68.5h76l-37 -154q-26 -17 -61 -33.5t-79.5 -30t-98.5 -22t-117 -8.5zM633 946q-62 0 -114 -23t-94 -64.5t-73 -99t-49 -126.5h508q12 55 12 104q0 107 -50 158t-140 51zM590 1210l145 224h203v-66l-231 -207h-117v49z" />
    <glyph glyph-name="ecircumflex" unicode="&#xea;" horiz-adv-x="1063" 
d="M506 -12q-106 0 -187.5 29.5t-136.5 85t-83.5 134.5t-28.5 179q0 87 18.5 171t53 158t84.5 136.5t114 107.5t140.5 70.5t164.5 25.5q91 0 159.5 -26t114 -73t68 -114t21.5 -149q0 -54 -9 -111t-24 -114h-696q-2 -20 -2.5 -39t-0.5 -39q0 -143 61 -211t191 -68
q97 0 169 26.5t126 68.5h76l-37 -154q-26 -17 -61 -33.5t-79.5 -30t-98.5 -22t-117 -8.5zM633 946q-62 0 -114 -23t-94 -64.5t-73 -99t-49 -126.5h508q12 55 12 104q0 107 -50 158t-140 51zM404 1219l227 215h147l146 -215v-58h-121l-115 135l-174 -135h-110v58z" />
    <glyph glyph-name="edieresis" unicode="&#xeb;" horiz-adv-x="1063" 
d="M506 -12q-106 0 -187.5 29.5t-136.5 85t-83.5 134.5t-28.5 179q0 87 18.5 171t53 158t84.5 136.5t114 107.5t140.5 70.5t164.5 25.5q91 0 159.5 -26t114 -73t68 -114t21.5 -149q0 -54 -9 -111t-24 -114h-696q-2 -20 -2.5 -39t-0.5 -39q0 -143 61 -211t191 -68
q97 0 169 26.5t126 68.5h76l-37 -154q-26 -17 -61 -33.5t-79.5 -30t-98.5 -22t-117 -8.5zM633 946q-62 0 -114 -23t-94 -64.5t-73 -99t-49 -126.5h508q12 55 12 104q0 107 -50 158t-140 51zM502 1192q-24 0 -44 8.5t-34.5 23.5t-22.5 35.5t-8 43.5q0 24 9.5 45.5t26 37
t38 24.5t45.5 9q25 0 45.5 -9t35.5 -24t23.5 -35t8.5 -42q0 -26 -10 -47t-27 -37t-39 -24.5t-47 -8.5zM852 1192q-49 0 -79.5 32t-30.5 79q0 24 9.5 45.5t26 37t38.5 24.5t46 9t44.5 -9t35 -24t23 -35t8.5 -42q0 -26 -10 -47t-26.5 -37t-38.5 -24.5t-46 -8.5z" />
    <glyph glyph-name="igrave" unicode="&#xec;" horiz-adv-x="500" 
d="M268 1071h105q27 0 45.5 -5t27.5 -21.5t8.5 -46.5t-12.5 -80l-211 -918h-208zM150 1368v66h199l98 -224v-49h-127z" />
    <glyph glyph-name="iacute" unicode="&#xed;" horiz-adv-x="500" 
d="M268 1071h105q27 0 45.5 -5t27.5 -21.5t8.5 -46.5t-12.5 -80l-211 -918h-208zM314 1210l145 224h203v-66l-231 -207h-117v49z" />
    <glyph glyph-name="icircumflex" unicode="&#xee;" horiz-adv-x="500" 
d="M268 1071h105q27 0 45.5 -5t27.5 -21.5t8.5 -46.5t-12.5 -80l-211 -918h-208zM122 1219l227 215h147l146 -215v-58h-121l-115 135l-174 -135h-110v58z" />
    <glyph glyph-name="idieresis" unicode="&#xef;" horiz-adv-x="500" 
d="M268 1071h105q27 0 45.5 -5t27.5 -21.5t8.5 -46.5t-12.5 -80l-211 -918h-208zM224 1192q-24 0 -44 8.5t-34.5 23.5t-22.5 35.5t-8 43.5q0 24 9.5 45.5t26 37t38 24.5t45.5 9q25 0 45.5 -9t35.5 -24t23.5 -35t8.5 -42q0 -26 -10 -47t-27 -37t-39 -24.5t-47 -8.5zM574 1192
q-49 0 -79.5 32t-30.5 79q0 24 9.5 45.5t26 37t38.5 24.5t46 9t44.5 -9t35 -24t23 -35t8.5 -42q0 -26 -10 -47t-26.5 -37t-38.5 -24.5t-46 -8.5z" />
    <glyph glyph-name="eth" unicode="&#xf0;" horiz-adv-x="1174" 
d="M438 1149l135 98q-63 31 -137 49l33 138h72q51 -14 97 -32.5t89 -41.5l98 72h133v-39l-131 -97q130 -99 200.5 -250.5t70.5 -357.5q0 -163 -43.5 -292.5t-120.5 -219.5t-183.5 -138t-232.5 -48q-106 0 -188.5 30.5t-139.5 87.5t-86.5 137.5t-29.5 180.5q0 134 42.5 249
t114 199.5t165.5 132.5t198 48q177 0 260 -115q-25 74 -69.5 136t-106.5 110l-105 -78h-135v41zM524 139q87 0 155 42.5t114.5 112.5t71 159.5t24.5 183.5q0 131 -66 200.5t-182 69.5q-86 0 -153 -40t-113 -108t-70 -157t-24 -186q0 -131 61.5 -204t181.5 -73z" />
    <glyph glyph-name="ntilde" unicode="&#xf1;" horiz-adv-x="1167" 
d="M264 1071h68q37 0 60.5 -11.5t35 -32.5t13 -51t-4.5 -67q46 37 95.5 69t103.5 56t113 37.5t124 13.5q61 0 108.5 -22t77 -65.5t37 -107.5t-11.5 -147l-172 -743h-131q-43 0 -55 21t0 79l145 641q22 93 -6 135t-94 42q-81 0 -173.5 -42t-193.5 -114l-176 -762h-209z
M829 1180q-34 0 -63.5 10.5t-56 23t-49.5 23t-44 10.5q-34 0 -51.5 -18t-30.5 -53h-114v59q26 77 74.5 121.5t119.5 44.5q34 0 64.5 -10.5t57 -22.5t50.5 -22.5t45 -10.5q32 0 49 19.5t29 50.5h115v-59q-26 -79 -73 -122.5t-122 -43.5z" />
    <glyph glyph-name="ograve" unicode="&#xf2;" horiz-adv-x="1174" 
d="M526 139q86 0 154 42.5t115.5 113.5t72.5 163t25 191q0 72 -16.5 126t-48 89t-76.5 52.5t-101 17.5q-84 0 -152.5 -42.5t-117 -113t-74.5 -163.5t-26 -193q0 -146 65 -214.5t180 -68.5zM518 -10q-105 0 -187.5 30t-139.5 86.5t-87 137.5t-30 182q0 144 45.5 264.5
t124 208.5t184.5 137t227 49q105 0 188 -31.5t140 -89t87 -138.5t30 -181q0 -144 -43.5 -264t-121.5 -207t-184.5 -135.5t-232.5 -48.5zM454 1368v66h199l98 -224v-49h-127z" />
    <glyph glyph-name="oacute" unicode="&#xf3;" horiz-adv-x="1174" 
d="M526 139q86 0 154 42.5t115.5 113.5t72.5 163t25 191q0 72 -16.5 126t-48 89t-76.5 52.5t-101 17.5q-84 0 -152.5 -42.5t-117 -113t-74.5 -163.5t-26 -193q0 -146 65 -214.5t180 -68.5zM518 -10q-105 0 -187.5 30t-139.5 86.5t-87 137.5t-30 182q0 144 45.5 264.5
t124 208.5t184.5 137t227 49q105 0 188 -31.5t140 -89t87 -138.5t30 -181q0 -144 -43.5 -264t-121.5 -207t-184.5 -135.5t-232.5 -48.5zM617 1210l145 224h203v-66l-231 -207h-117v49z" />
    <glyph glyph-name="ocircumflex" unicode="&#xf4;" horiz-adv-x="1174" 
d="M526 139q86 0 154 42.5t115.5 113.5t72.5 163t25 191q0 72 -16.5 126t-48 89t-76.5 52.5t-101 17.5q-84 0 -152.5 -42.5t-117 -113t-74.5 -163.5t-26 -193q0 -146 65 -214.5t180 -68.5zM518 -10q-105 0 -187.5 30t-139.5 86.5t-87 137.5t-30 182q0 144 45.5 264.5
t124 208.5t184.5 137t227 49q105 0 188 -31.5t140 -89t87 -138.5t30 -181q0 -144 -43.5 -264t-121.5 -207t-184.5 -135.5t-232.5 -48.5zM430 1219l227 215h147l146 -215v-58h-121l-115 135l-174 -135h-110v58z" />
    <glyph glyph-name="otilde" unicode="&#xf5;" horiz-adv-x="1174" 
d="M526 139q86 0 154 42.5t115.5 113.5t72.5 163t25 191q0 72 -16.5 126t-48 89t-76.5 52.5t-101 17.5q-84 0 -152.5 -42.5t-117 -113t-74.5 -163.5t-26 -193q0 -146 65 -214.5t180 -68.5zM518 -10q-105 0 -187.5 30t-139.5 86.5t-87 137.5t-30 182q0 144 45.5 264.5
t124 208.5t184.5 137t227 49q105 0 188 -31.5t140 -89t87 -138.5t30 -181q0 -144 -43.5 -264t-121.5 -207t-184.5 -135.5t-232.5 -48.5zM817 1180q-34 0 -63.5 10.5t-56 23t-49.5 23t-44 10.5q-34 0 -51.5 -18t-30.5 -53h-114v59q26 77 74.5 121.5t119.5 44.5
q34 0 64.5 -10.5t57 -22.5t50.5 -22.5t45 -10.5q32 0 49 19.5t29 50.5h115v-59q-26 -79 -73 -122.5t-122 -43.5z" />
    <glyph glyph-name="odieresis" unicode="&#xf6;" horiz-adv-x="1174" 
d="M526 139q86 0 154 42.5t115.5 113.5t72.5 163t25 191q0 72 -16.5 126t-48 89t-76.5 52.5t-101 17.5q-84 0 -152.5 -42.5t-117 -113t-74.5 -163.5t-26 -193q0 -146 65 -214.5t180 -68.5zM518 -10q-105 0 -187.5 30t-139.5 86.5t-87 137.5t-30 182q0 144 45.5 264.5
t124 208.5t184.5 137t227 49q105 0 188 -31.5t140 -89t87 -138.5t30 -181q0 -144 -43.5 -264t-121.5 -207t-184.5 -135.5t-232.5 -48.5zM528 1192q-24 0 -44 8.5t-34.5 23.5t-22.5 35.5t-8 43.5q0 24 9.5 45.5t26 37t38 24.5t45.5 9q25 0 45.5 -9t35.5 -24t23.5 -35t8.5 -42
q0 -26 -10 -47t-27 -37t-39 -24.5t-47 -8.5zM878 1192q-49 0 -79.5 32t-30.5 79q0 24 9.5 45.5t26 37t38.5 24.5t46 9t44.5 -9t35 -24t23 -35t8.5 -42q0 -26 -10 -47t-26.5 -37t-38.5 -24.5t-46 -8.5z" />
    <glyph glyph-name="divide" unicode="&#xf7;" 
d="M582 244q-27 0 -49.5 9.5t-39 25.5t-25.5 38t-9 48q0 27 11 51t29.5 42t43 28t51.5 10q28 0 50.5 -9.5t38.5 -26t25 -38.5t9 -47q0 -29 -11 -53t-30 -41t-43 -27t-51 -10zM221 793h905l-39 -170h-905zM713 920q-27 0 -49.5 9.5t-39 26t-25.5 38.5t-9 48q0 27 11 50.5
t29.5 41t43 27.5t51.5 10q28 0 50.5 -9.5t38.5 -25.5t25 -38t9 -47q0 -29 -11 -53t-30 -41t-43 -27t-51 -10z" />
    <glyph glyph-name="oslash" unicode="&#xf8;" horiz-adv-x="1174" 
d="M518 -10q-167 0 -274 71l-101 -112h-125v45l138 153q-82 109 -82 279q0 144 45.5 264.5t124 208.5t184.5 137t227 49q82 0 149.5 -19t121.5 -54l88 98h127v-45l-125 -139q40 -56 62 -126.5t22 -154.5q0 -144 -43.5 -264t-121.5 -207t-184.5 -135.5t-232.5 -48.5zM526 137
q88 0 157 43t116.5 114t72.5 163.5t25 191.5q0 35 -4 66t-12 59l-525 -586q61 -51 170 -51zM274 422q0 -73 15 -125l522 586q-29 26 -69.5 38.5t-90.5 12.5q-85 0 -154.5 -42.5t-119 -113t-76.5 -163.5t-27 -193z" />
    <glyph glyph-name="ugrave" unicode="&#xf9;" horiz-adv-x="1161" 
d="M834 0q-40 0 -66 12t-39.5 33.5t-16.5 50.5t3 64q-44 -35 -90.5 -66.5t-97.5 -55.5t-106 -38t-116 -14q-65 0 -115 21.5t-81 64.5t-39 107t12 149l172 743h135q41 0 53.5 -20t-0.5 -80l-145 -639q-20 -94 7 -136t93 -42q81 0 167.5 40.5t180.5 108.5l177 768h213
l-246 -1071h-55zM479 1368v66h199l98 -224v-49h-127z" />
    <glyph glyph-name="uacute" unicode="&#xfa;" horiz-adv-x="1161" 
d="M834 0q-40 0 -66 12t-39.5 33.5t-16.5 50.5t3 64q-44 -35 -90.5 -66.5t-97.5 -55.5t-106 -38t-116 -14q-65 0 -115 21.5t-81 64.5t-39 107t12 149l172 743h135q41 0 53.5 -20t-0.5 -80l-145 -639q-20 -94 7 -136t93 -42q81 0 167.5 40.5t180.5 108.5l177 768h213
l-246 -1071h-55zM635 1210l145 224h203v-66l-231 -207h-117v49z" />
    <glyph glyph-name="ucircumflex" unicode="&#xfb;" horiz-adv-x="1161" 
d="M834 0q-40 0 -66 12t-39.5 33.5t-16.5 50.5t3 64q-44 -35 -90.5 -66.5t-97.5 -55.5t-106 -38t-116 -14q-65 0 -115 21.5t-81 64.5t-39 107t12 149l172 743h135q41 0 53.5 -20t-0.5 -80l-145 -639q-20 -94 7 -136t93 -42q81 0 167.5 40.5t180.5 108.5l177 768h213
l-246 -1071h-55zM447 1219l227 215h147l146 -215v-58h-121l-115 135l-174 -135h-110v58z" />
    <glyph glyph-name="udieresis" unicode="&#xfc;" horiz-adv-x="1161" 
d="M834 0q-40 0 -66 12t-39.5 33.5t-16.5 50.5t3 64q-44 -35 -90.5 -66.5t-97.5 -55.5t-106 -38t-116 -14q-65 0 -115 21.5t-81 64.5t-39 107t12 149l172 743h135q41 0 53.5 -20t-0.5 -80l-145 -639q-20 -94 7 -136t93 -42q81 0 167.5 40.5t180.5 108.5l177 768h213
l-246 -1071h-55zM545 1192q-24 0 -44 8.5t-34.5 23.5t-22.5 35.5t-8 43.5q0 24 9.5 45.5t26 37t38 24.5t45.5 9q25 0 45.5 -9t35.5 -24t23.5 -35t8.5 -42q0 -26 -10 -47t-27 -37t-39 -24.5t-47 -8.5zM895 1192q-49 0 -79.5 32t-30.5 79q0 24 9.5 45.5t26 37t38.5 24.5t46 9
t44.5 -9t35 -24t23 -35t8.5 -42q0 -26 -10 -47t-26.5 -37t-38.5 -24.5t-46 -8.5z" />
    <glyph glyph-name="yacute" unicode="&#xfd;" horiz-adv-x="1051" 
d="M63 -270l252 374l-165 910v57h198l125 -739h2l443 739h176v-57l-842 -1346h-189v62zM571 1210l145 224h203v-66l-231 -207h-117v49z" />
    <glyph glyph-name="thorn" unicode="&#xfe;" horiz-adv-x="1182" 
d="M346 1434h123q22 0 37.5 -5t23 -19.5t7 -41t-10.5 -68.5l-88 -387q34 34 75 65t88.5 55t101 38t112.5 14q60 0 114 -21t95.5 -66.5t65.5 -117.5t24 -173q0 -155 -40.5 -284t-115 -223t-178 -146t-229.5 -52q-57 0 -102.5 9.5t-81.5 25t-63 35.5t-48 41l-100 -445h-213z
M731 926q-46 0 -88.5 -12.5t-82.5 -33.5t-78.5 -49t-75.5 -59l-119 -528q15 -17 36 -34t48 -31t62 -23t79 -9q96 0 169.5 44t123 119.5t75 176t25.5 213.5q0 59 -13 102t-36.5 70.5t-55.5 40.5t-69 13z" />
    <glyph glyph-name="ydieresis" unicode="&#xff;" horiz-adv-x="1051" 
d="M63 -270l252 374l-165 910v57h198l125 -739h2l443 739h176v-57l-842 -1346h-189v62zM475 1192q-24 0 -44 8.5t-34.5 23.5t-22.5 35.5t-8 43.5q0 24 9.5 45.5t26 37t38 24.5t45.5 9q25 0 45.5 -9t35.5 -24t23.5 -35t8.5 -42q0 -26 -10 -47t-27 -37t-39 -24.5t-47 -8.5z
M825 1192q-49 0 -79.5 32t-30.5 79q0 24 9.5 45.5t26 37t38.5 24.5t46 9t44.5 -9t35 -24t23 -35t8.5 -42q0 -26 -10 -47t-26.5 -37t-38.5 -24.5t-46 -8.5z" />
    <glyph glyph-name="dotlessi" unicode="&#x131;" horiz-adv-x="500" 
d="M268 1071h105q27 0 45.5 -5t27.5 -21.5t8.5 -46.5t-12.5 -80l-211 -918h-208z" />
    <glyph glyph-name="Lslash" unicode="&#x141;" horiz-adv-x="1122" 
d="M35 608l164 60l176 766h225l-156 -678l465 168l-37 -170l-469 -170l-96 -420h649l-38 -164h-873l115 496l-164 -58z" />
    <glyph glyph-name="lslash" unicode="&#x142;" horiz-adv-x="510" 
d="M66 770l153 76l135 588h121q22 0 38 -5t23.5 -19.5t7.5 -41t-9 -68.5l-78 -333l161 80l-38 -162l-160 -80l-184 -805h-211l157 686l-155 -78z" />
    <glyph glyph-name="OE" unicode="&#x152;" horiz-adv-x="2003" 
d="M119 561q0 109 23 216.5t68 204.5t112 180t155 143.5t197 94.5t239 34h1174l-39 -168h-647l-105 -453h486l-37 -160h-485l-113 -489h694l-39 -164h-1077q-154 0 -268 37t-189 108.5t-112 176t-37 239.5zM348 561q0 -86 18.5 -158.5t62.5 -125.5t117 -83t183 -30h193
l254 1104h-256q-102 0 -184 -30t-145.5 -81.5t-109.5 -121t-75.5 -148t-43.5 -162.5t-14 -164z" />
    <glyph glyph-name="oe" unicode="&#x153;" horiz-adv-x="1866" 
d="M518 -10q-105 0 -187.5 30t-139.5 86.5t-87 137.5t-30 182q0 144 45.5 264.5t124 208.5t184.5 137t227 49q147 0 240 -63t135 -174q35 54 79.5 97.5t98 74.5t115.5 48t133 17q91 0 158 -26t110.5 -73t65 -114t20.5 -149q0 -54 -8.5 -111t-23.5 -114h-697q-2 -20 -2 -39
v-39q0 -143 61 -211t191 -68q97 0 169 26.5t126 68.5h76l-35 -150q-27 -17 -62.5 -34.5t-80.5 -31.5t-98.5 -23t-116.5 -9q-151 0 -241.5 61t-127.5 168q-74 -108 -182.5 -167.5t-239.5 -59.5zM526 139q86 0 154 42.5t115.5 113.5t72.5 163t25 191q0 72 -16.5 126t-48 89
t-76.5 52.5t-101 17.5q-84 0 -152.5 -42.5t-117 -113t-74.5 -163.5t-26 -193q0 -146 65 -214.5t180 -68.5zM1442 946q-62 0 -115.5 -23t-96.5 -64.5t-74.5 -99t-49.5 -126.5h508q12 55 12 104q0 107 -48 158t-136 51z" />
    <glyph glyph-name="Scaron" unicode="&#x160;" horiz-adv-x="1096" 
d="M467 -12q-80 0 -149.5 12t-128.5 33.5t-107 50.5t-84 63l35 160h82q57 -71 146.5 -113t213.5 -42q63 0 119 15.5t97.5 48t66 83t24.5 121.5q0 48 -19 81t-53.5 58.5t-84.5 46t-111 43.5q-74 28 -133 60t-100.5 74.5t-63.5 98.5t-22 132q0 100 35.5 180.5t100 136
t155 85.5t200.5 30q131 0 233 -37t181 -106l-35 -150h-80q-60 61 -133.5 95t-177.5 34q-56 0 -106 -14.5t-88 -44t-60.5 -73.5t-22.5 -103q0 -48 17 -81t50 -57.5t82 -45t113 -44.5q72 -27 133.5 -58t106.5 -73.5t70.5 -100t25.5 -136.5q0 -115 -38.5 -201.5t-108 -144.5
t-167 -87.5t-214.5 -29.5zM995 1671l-217 -192h-147l-148 192v60h121l117 -113l164 113h110v-60z" />
    <glyph glyph-name="scaron" unicode="&#x161;" horiz-adv-x="883" 
d="M334 -10q-68 0 -123.5 10t-100 26t-78.5 35.5t-57 38.5l35 146h74q16 -19 40 -38t56 -34t71.5 -24t86.5 -9q111 0 171 45t60 123q0 30 -10.5 51.5t-32.5 38.5t-54.5 31t-76.5 29q-65 22 -115.5 47t-86 57.5t-54 76t-18.5 103.5q0 78 27.5 140.5t80 107t128 68.5t171.5 24
q59 0 108.5 -8.5t90 -22t72 -31.5t55.5 -36l-33 -139h-69q-34 34 -91 60t-141 26q-105 0 -157 -42.5t-52 -113.5q0 -28 10.5 -48t32 -36.5t55 -31t80.5 -29.5q61 -21 111.5 -44t87.5 -55t57.5 -76t20.5 -106q0 -80 -28.5 -146t-83.5 -113.5t-135.5 -74t-184.5 -26.5z
M335 1376v58h118l115 -136l176 136h109v-58l-228 -215h-147z" />
    <glyph glyph-name="Ydieresis" unicode="&#x178;" horiz-adv-x="1196" 
d="M514 588l-266 776v70h207l217 -656h2l493 656h172v-70l-606 -797l-129 -567h-225zM653 1489q-24 0 -44 8.5t-34.5 23.5t-23 35t-8.5 43q0 25 10 46t26.5 37t38.5 25t46 9t44.5 -9t35 -24t22.5 -35t8 -42q0 -26 -9.5 -47t-26 -37t-38.5 -24.5t-47 -8.5zM1004 1489
q-50 0 -80.5 32t-30.5 78q0 25 9.5 46t26 37t38.5 25t47 9q24 0 44 -9t34.5 -24t23 -35t8.5 -42q0 -26 -10 -47t-26.5 -37t-38 -24.5t-45.5 -8.5z" />
    <glyph glyph-name="Zcaron" unicode="&#x17d;" horiz-adv-x="1186" 
d="M6 174l995 1090v6h-690l37 164h955l-41 -181l-998 -1087v-6h733l-34 -160h-998zM1114 1671l-217 -192h-147l-148 192v60h121l117 -113l164 113h110v-60z" />
    <glyph glyph-name="zcaron" unicode="&#x17e;" horiz-adv-x="975" 
d="M-18 150l753 770h-538l34 151h791l-35 -149l-758 -770h566l-33 -152h-813zM418 1376v58h118l115 -136l176 136h109v-58l-228 -215h-147z" />
    <glyph glyph-name="florin" unicode="&#x192;" 
d="M360 893h179l65 272q19 81 52.5 135.5t81 87.5t109 46.5t136.5 13.5q22 0 45.5 -2t45 -6t39.5 -8.5t30 -10.5l-29 -125h-90q-44 0 -77.5 -5t-58 -20t-41 -42t-26.5 -72l-63 -264h258l-37 -148h-254l-219 -935h-219l219 935h-180z" />
    <glyph glyph-name="circumflex" unicode="&#x2c6;" horiz-adv-x="850" 
d="M326 1219l227 215h147l146 -215v-58h-121l-115 135l-174 -135h-110v58z" />
    <glyph glyph-name="caron" unicode="&#x2c7;" horiz-adv-x="850" 
d="M365 1376v58h118l115 -136l176 136h109v-58l-228 -215h-147z" />
    <glyph glyph-name="breve" unicode="&#x2d8;" horiz-adv-x="850" 
d="M594 1163q-56 0 -99 16t-73 43.5t-47 63.5t-21 76v59h142q-3 -52 22.5 -82t79.5 -30q56 0 89.5 29t45.5 83h135v-59q-12 -39 -35.5 -75t-58 -63.5t-80 -44t-100.5 -16.5z" />
    <glyph glyph-name="dotaccent" unicode="&#x2d9;" horiz-adv-x="850" 
d="M602 1192q-25 0 -46 9t-36.5 24.5t-24 36.5t-8.5 45q0 25 10 47t27 38t39.5 25.5t46.5 9.5q25 0 46.5 -9t37.5 -25t24.5 -36.5t8.5 -43.5q0 -26 -10.5 -48.5t-27.5 -38.5t-39.5 -25t-47.5 -9z" />
    <glyph glyph-name="ring" unicode="&#x2da;" horiz-adv-x="850" 
d="M610 1266q41 0 69 27.5t28 72.5q0 38 -23.5 62t-60.5 24q-42 0 -67.5 -28t-25.5 -76q0 -39 22.5 -60.5t57.5 -21.5zM610 1167q-39 0 -74 12t-61 35t-41.5 56.5t-15.5 77.5q0 46 17.5 83t46 63.5t66 41t77.5 14.5q39 0 74 -12.5t61 -36.5t41.5 -58t15.5 -77
q0 -47 -17.5 -84t-46.5 -62.5t-66.5 -39t-76.5 -13.5z" />
    <glyph glyph-name="ogonek" unicode="&#x2db;" horiz-adv-x="840" 
d="M289 -338q-40 0 -71.5 11t-53.5 30t-33.5 44.5t-11.5 55.5q0 37 14.5 67.5t37.5 55t52.5 43t59.5 31.5h143q-25 -15 -49.5 -31.5t-44.5 -35t-32.5 -39.5t-12.5 -44q0 -27 18.5 -43t65.5 -16h49l-25 -104q-23 -11 -49 -18t-57 -7z" />
    <glyph glyph-name="tilde" unicode="&#x2dc;" horiz-adv-x="850" 
d="M698 1180q-34 0 -63.5 10.5t-56 23t-49.5 23t-44 10.5q-34 0 -51.5 -18t-30.5 -53h-114v59q26 77 74.5 121.5t119.5 44.5q34 0 64.5 -10.5t57 -22.5t50.5 -22.5t45 -10.5q32 0 49 19.5t29 50.5h115v-59q-26 -79 -73 -122.5t-122 -43.5z" />
    <glyph glyph-name="hungarumlaut" unicode="&#x2dd;" horiz-adv-x="850" 
d="M377 1204l117 230h168v-66l-177 -207h-108v43zM670 1204l116 230h168v-66l-176 -207h-108v43z" />
    <glyph glyph-name="endash" unicode="&#x2013;" horiz-adv-x="897" 
d="M119 666h719l-37 -164h-719z" />
    <glyph glyph-name="emdash" unicode="&#x2014;" horiz-adv-x="1491" 
d="M119 666h1313l-39 -164h-1311z" />
    <glyph glyph-name="quoteleft" unicode="&#x2018;" horiz-adv-x="360" 
d="M313 1016q-24 0 -46 9t-38.5 25.5t-26 40.5t-9.5 54q0 66 24 118.5t66.5 90t101 59.5t127.5 27l-23 -101q-52 -8 -87 -27.5t-35 -51.5q0 -17 7.5 -24t22.5 -19q17 -14 28 -32t11 -46q0 -27 -10 -49.5t-27 -39t-39 -25.5t-47 -9z" />
    <glyph glyph-name="quoteright" unicode="&#x2019;" horiz-adv-x="360" 
d="M182 1122q25 4 48 11t40 17t27 23t10 29q0 17 -8.5 24t-22.5 19q-18 14 -29 32t-11 46q0 27 10 49.5t27 39t39 25.5t46 9q25 0 47 -9t38.5 -25.5t26 -40.5t9.5 -54q0 -66 -24 -118.5t-66.5 -90.5t-101 -60.5t-127.5 -27.5z" />
    <glyph glyph-name="quotesinglbase" unicode="&#x201a;" horiz-adv-x="360" 
d="M-78 -78q53 6 88 27t35 53q0 17 -7.5 24t-23.5 19q-17 12 -28 31t-11 45q0 28 10 50.5t27 38.5t39.5 25t46.5 9q25 0 47 -8.5t38.5 -25t26 -40.5t9.5 -55q0 -65 -24 -117.5t-66.5 -90t-101 -60t-127.5 -27.5z" />
    <glyph glyph-name="quotedblleft" unicode="&#x201c;" horiz-adv-x="698" 
d="M313 1016q-24 0 -46 9t-38.5 25.5t-26 40.5t-9.5 54q0 66 24 118.5t66.5 90t101 59.5t127.5 27l-23 -101q-52 -8 -87 -27.5t-35 -51.5q0 -17 7.5 -24t22.5 -19q17 -14 28 -32t11 -46q0 -27 -10 -49.5t-27 -39t-39 -25.5t-47 -9zM641 1016q-51 0 -86 34.5t-35 94.5
q0 66 24 118.5t66.5 90t101.5 59.5t128 27l-25 -101q-25 -4 -47.5 -10.5t-39 -16.5t-26.5 -23t-10 -29q0 -17 7.5 -24t23.5 -19q19 -14 30 -32t11 -46q0 -27 -10 -49.5t-27.5 -39t-39.5 -25.5t-46 -9z" />
    <glyph glyph-name="quotedblright" unicode="&#x201d;" horiz-adv-x="686" 
d="M184 1122q51 8 87 28t36 52q0 17 -8.5 24t-22.5 19q-18 14 -29 32t-11 46q0 27 10 49.5t27 39t39 25.5t46 9q25 0 47 -9t38.5 -25.5t26 -40.5t9.5 -54q0 -66 -24 -118.5t-66.5 -90.5t-101 -60.5t-127.5 -27.5zM510 1122q51 8 87 28t36 52q0 17 -7.5 24t-23.5 19
q-17 14 -29 32t-12 46q0 27 10.5 49.5t27.5 39t40 25.5t47 9q25 0 47 -9t38.5 -25.5t26 -40.5t9.5 -54q0 -66 -24 -118.5t-66.5 -90.5t-101.5 -60.5t-128 -27.5z" />
    <glyph glyph-name="quotedblbase" unicode="&#x201e;" horiz-adv-x="686" 
d="M-78 -78q53 6 88 27t35 53q0 17 -7.5 24t-23.5 19q-17 12 -28 31t-11 45q0 28 10 50.5t27 38.5t39.5 25t46.5 9q25 0 47 -8.5t38.5 -25t26 -40.5t9.5 -55q0 -65 -24 -117.5t-66.5 -90t-101 -60t-127.5 -27.5zM250 -78q25 3 47.5 10t39 17t26.5 23.5t10 29.5q0 17 -8 24
t-23 19q-19 12 -30 31t-11 45q0 28 10 50.5t27.5 38.5t39.5 25t46 9t46 -8.5t38.5 -25t26.5 -40.5t10 -55q0 -65 -24 -117.5t-66.5 -90t-101.5 -60t-128 -27.5z" />
    <glyph glyph-name="dagger" unicode="&#x2020;" horiz-adv-x="944" 
d="M375 569l31 138l92 204l-228 -43h-120l45 203h108l221 -45l8 205l46 203h206l-49 -217l-82 -191l228 45h120l-47 -203h-108l-219 43l-6 -219l-31 -137l-184 -655h-152z" />
    <glyph glyph-name="daggerdbl" unicode="&#x2021;" horiz-adv-x="944" 
d="M274 111l82 190l-229 -45h-121l47 205h109l221 -45l-2 190l31 129l88 183l-230 -46h-118l45 205h108l221 -45l9 203l43 199h206l-47 -211l-84 -191l230 45h121l-48 -205h-108l-221 46l2 -191l-29 -129l-88 -182l227 45h121l-47 -205h-108l-222 45l-6 -203l-45 -198h-207z
" />
    <glyph glyph-name="bullet" unicode="&#x2022;" horiz-adv-x="647" 
d="M313 334q-50 0 -94 15.5t-76.5 45t-51.5 72t-19 96.5q0 66 23.5 119.5t63.5 91t93.5 58t112.5 20.5q49 0 92 -16t75.5 -45.5t51 -72t18.5 -95.5q0 -67 -22.5 -120.5t-61.5 -91t-91.5 -57.5t-113.5 -20z" />
    <glyph glyph-name="ellipsis" unicode="&#x2026;" horiz-adv-x="1190" 
d="M100 -10q-27 0 -50 9.5t-40 26t-27 39.5t-10 50q0 26 10 49t27.5 40.5t41 27.5t50.5 10t50 -9.5t40.5 -26.5t27 -39.5t9.5 -49.5t-10.5 -50t-28 -40.5t-41 -27t-49.5 -9.5zM506 -10q-28 0 -51 9.5t-40 26t-26.5 39.5t-9.5 50q0 26 10 49t27.5 40.5t41 27.5t50.5 10
t50 -9.5t40.5 -26.5t27 -39.5t9.5 -49.5t-10.5 -50t-28 -40.5t-41 -27t-49.5 -9.5zM909 -10q-27 0 -49.5 9.5t-39.5 26t-26.5 39.5t-9.5 50q0 26 10 49t27.5 40.5t41 27.5t50.5 10q26 0 49 -9.5t40.5 -26.5t27.5 -39.5t10 -49.5t-10.5 -50t-28 -40.5t-41.5 -27t-51 -9.5z
" />
    <glyph glyph-name="perthousand" unicode="&#x2030;" horiz-adv-x="2458" 
d="M487 831q51 -1 91.5 28.5t68.5 77t43 105.5t15 115q0 34 -8 63.5t-24.5 52t-43 35.5t-62.5 13q-51 0 -92 -30t-69 -77.5t-43 -106t-15 -114.5q0 -35 8 -64.5t25.5 -51t43.5 -34t62 -12.5zM475 705q-67 0 -121.5 21t-93 59t-59.5 92t-21 120q0 91 30.5 172.5t84 143
t126 97.5t157.5 36q67 0 121 -21t92.5 -59t59.5 -93t21 -122q0 -89 -30.5 -169.5t-83.5 -142t-126 -98t-157 -36.5zM1452 1493h168l-1286 -1563h-170zM1223 113q51 0 91.5 29.5t68.5 76.5t42.5 104.5t14.5 114.5q0 34 -8 63.5t-24.5 52t-42.5 35.5t-62 13q-51 0 -92 -30
t-69.5 -77t-43.5 -105.5t-15 -115.5q0 -35 8 -64t25.5 -51t44 -34t62.5 -12zM1210 -12q-67 0 -121.5 20.5t-93 58.5t-59.5 92t-21 120q0 90 30.5 172t84 143.5t126.5 98t159 36.5q67 0 121 -21t92 -59.5t59 -93.5t21 -123q0 -88 -30 -168.5t-83.5 -141.5t-126.5 -97.5
t-158 -36.5zM2005 113q51 0 92 29.5t69 76.5t43 104.5t15 114.5q0 34 -8 63.5t-24.5 52t-42.5 35.5t-62 13q-51 0 -92 -30t-69 -77t-43 -105.5t-15 -115.5q0 -35 8 -64t25 -51t43 -34t61 -12zM1995 -12q-67 0 -121.5 20.5t-93.5 58.5t-60.5 92t-21.5 120q0 90 30.5 172
t84.5 143.5t127 98t157 36.5q67 0 121.5 -21t93 -59.5t59.5 -93.5t21 -123q0 -88 -30.5 -168.5t-83.5 -141.5t-126 -97.5t-157 -36.5z" />
    <glyph glyph-name="guilsinglleft" unicode="&#x2039;" horiz-adv-x="616" 
d="M78 500l18 88l365 389h168v-53l-361 -400v-6l176 -377v-51h-168z" />
    <glyph glyph-name="guilsinglright" unicode="&#x203a;" horiz-adv-x="616" 
d="M-8 143l360 398v6l-176 377v53h168l199 -412l-19 -86l-364 -389h-168v53z" />
    <glyph glyph-name="fraction" unicode="&#x2044;" horiz-adv-x="440" 
d="M821 1493h168l-1286 -1563h-168z" />
    <glyph glyph-name="Euro" unicode="&#x20ac;" 
d="M143 918h127q42 110 107 206.5t152 168t197 112.5t243 41q64 0 114 -6.5t90.5 -19t74 -30.5t65.5 -40l-37 -154h-86q-23 21 -47.5 37t-52.5 26.5t-61 15.5t-75 5q-84 0 -155 -27t-129 -75t-102 -114.5t-74 -145.5h450l-49 -134h-446q-8 -32 -14 -64.5t-9 -64.5h420
l-51 -133h-377v-33q3 -170 75.5 -253.5t229.5 -83.5q52 0 95 8.5t80 23.5t68 34.5t60 41.5h80l-37 -164q-31 -21 -68 -40.5t-82.5 -34.5t-99 -24t-117.5 -9q-112 0 -204 31.5t-158.5 94.5t-104 157t-40.5 218v16.5t2 16.5h-144l31 133h121q3 32 8.5 64.5t13.5 64.5h-114z
" />
    <glyph glyph-name="trademark" unicode="&#x2122;" horiz-adv-x="1360" 
d="M831 1434h201l33 -361h2l201 361h209l-134 -568h-131l107 455h-2l-256 -455h-96l-43 455h-2l-105 -455h-115zM414 1333h-170l24 101h475l-24 -101h-170l-109 -467h-135z" />
    <glyph glyph-name="minus" unicode="&#x2212;" 
d="M221 793h905l-39 -170h-905z" />
    <glyph glyph-name="fi" unicode="&#xfb01;" horiz-adv-x="1120" 
d="M885 1071h104q28 0 47 -5t28 -21.5t8 -46.5t-13 -80l-209 -918h-211zM1038 1192q-25 0 -46 9t-36 24.5t-23.5 36.5t-8.5 45q0 25 10 47t27 38t39.5 25.5t48.5 9.5q25 0 46 -9t36 -25t23.5 -36.5t8.5 -43.5q0 -26 -10 -48.5t-27 -38.5t-40 -25t-48 -9zM268 926h-131
l31 145h133l23 100q34 146 119.5 211.5t218.5 65.5q54 0 89 -5.5t60 -15.5l-29 -131h-67q-36 0 -66 -5.5t-52.5 -20.5t-39 -40.5t-25.5 -64.5l-20 -94h213l-31 -145h-217l-209 -926h-205z" />
    <glyph glyph-name="fl" unicode="&#xfb02;" horiz-adv-x="1124" 
d="M268 926h-131l31 145h133l23 100q34 146 119.5 211.5t218.5 65.5q54 0 86 -5t57 -13l-29 -134h-61q-36 0 -66 -5.5t-52.5 -20.5t-39 -40.5t-25.5 -64.5l-20 -94h213l-31 -145h-217l-209 -926h-205zM969 1434h123q21 0 36.5 -5t23 -19.5t7 -41t-9.5 -68.5l-299 -1300h-209
z" />
    <glyph glyph-name="grave.cap" horiz-adv-x="850" 
d="M602 1479l-158 180v65h199l86 -196v-49h-127z" />
    <glyph glyph-name="dieresis.cap" horiz-adv-x="850" 
d="M483 1489q-24 0 -44 8.5t-34.5 23.5t-23 35t-8.5 43q0 25 10 46t26.5 37t38.5 25t46 9t44.5 -9t35 -24t22.5 -35t8 -42q0 -26 -9.5 -47t-26 -37t-38.5 -24.5t-47 -8.5zM834 1489q-50 0 -80.5 32t-30.5 78q0 25 9.5 46t26 37t38.5 25t47 9q24 0 44 -9t34.5 -24t23 -35
t8.5 -42q0 -26 -10 -47t-26.5 -37t-38 -24.5t-45.5 -8.5z" />
    <glyph glyph-name="macron.cap" horiz-adv-x="850" 
d="M438 1665h504l-35 -147h-501z" />
    <glyph glyph-name="acute.cap" horiz-adv-x="850" 
d="M582 1528l125 196h202v-65l-211 -180h-116v49z" />
    <glyph glyph-name="circumflex.cap" horiz-adv-x="850" 
d="M393 1538l217 193h148l147 -193v-59h-121l-116 112l-166 -112h-109v59z" />
    <glyph glyph-name="caron.cap" horiz-adv-x="850" 
d="M948 1671l-217 -192h-147l-148 192v60h121l117 -113l164 113h110v-60z" />
    <glyph glyph-name="breve.cap" horiz-adv-x="850" 
d="M672 1483q-56 0 -99 15t-73 40.5t-47 57.5t-21 67v61h139q0 -43 26.5 -69.5t80.5 -26.5q56 0 87.5 25t43.5 71h135v-61q-13 -35 -36.5 -67.5t-57 -57.5t-78 -40t-100.5 -15z" />
    <glyph glyph-name="dotaccent.cap" horiz-adv-x="850" 
d="M670 1493q-25 0 -46 8.5t-36.5 24t-24 36t-8.5 44.5q0 25 10 47t27.5 38t40 25.5t47.5 9.5t46.5 -9t37.5 -25t24.5 -36.5t8.5 -43.5q0 -26 -10.5 -48t-28 -38t-40.5 -24.5t-48 -8.5z" />
    <glyph glyph-name="ring.cap" horiz-adv-x="850" 
d="M682 1485q-39 0 -73.5 12t-60.5 35t-41 56.5t-15 76.5q0 47 17.5 85t46 64.5t65.5 41t77 14.5q39 0 74 -12.5t61 -36.5t41 -58t15 -77q0 -47 -17.5 -84t-46.5 -63t-66 -40t-77 -14zM684 1585q40 0 68 28t28 73q0 37 -24 60t-62 23q-40 0 -66 -27t-26 -75q0 -38 22.5 -60
t59.5 -22z" />
    <glyph glyph-name="tilde.cap" horiz-adv-x="850" 
d="M776 1491q-35 0 -64.5 10.5t-56 23.5t-49 23.5t-43.5 10.5q-34 0 -52.5 -18t-29.5 -52h-114v57q26 78 74 122t120 44q34 0 64.5 -10t57 -21.5t50.5 -21.5t45 -10q31 0 48.5 18t29.5 49h115v-59q-28 -78 -75.5 -122t-119.5 -44z" />
    <glyph glyph-name="hungarumlaut.cap" horiz-adv-x="850" 
d="M446 1524l101 200h168v-65l-160 -180h-109v45zM739 1524l101 200h168v-65l-160 -180h-109v45z" />
    </font>
</defs>
</svg>
